<svg width="1443" height="314" xmlns="http://www.w3.org/2000/svg" fill="none">

 <g>
  <title>Layer 1</title>
  <path id="svg_1" fill="#0C1B3C" d="m304.026,93.3693l-3.152,-7.4915c0,0 -5.831,-6.1513 -2.52,-11.1164c3.311,-4.9705 17.344,-6.1513 20.419,11.9842c0,0 4.963,0.1593 5.831,4.965c0.867,4.8113 -3.47,7.9639 -4.81,11.5124c-1.34,3.548 -4.337,4.811 -4.337,4.811l-5.595,0.868l-5.836,-15.5327z"/>
  <path id="svg_2" fill="#E9928B" d="m338,194.218c0,0 -3.311,5.283 -4.101,8.123c-0.791,2.839 -1.499,3.707 -0.868,4.256c0.632,0.555 2.207,-2.284 3.311,-3.707c1.104,-1.422 1.263,3.784 1.263,5.679c0,1.895 -0.912,5.284 0.115,5.361c1.027,0.077 3.668,-4.339 4.612,-6.152c0.944,-1.812 0.522,-13.56 0.522,-13.56l-4.854,0l0,0z"/>
  <path id="svg_3" fill="#c49256" d="m329.446,299.924l-2.366,1.774c0,0 -1.774,6.86 -0.945,9.518l28.023,0c0,0 -2.718,-3.905 -8.279,-5.646c-5.557,-1.747 -7.215,-2.334 -8.038,-3.872c-0.829,-1.538 -8.395,-1.774 -8.395,-1.774z"/>
  <path id="svg_4" fill="#c99f6c" d="m284.87,298.979l2.009,2.718c0,0 2.482,6.031 1.417,9.518l-23.411,0c0,0 0.357,-3.905 4.255,-5.646c3.903,-1.746 7.329,-3.872 7.329,-3.872l8.401,-2.718z"/>
  <path id="svg_5" fill="white" d="m354.158,311.222l-28.023,0l0,2.779l28.023,0l0,-2.779z"/>
  <path id="svg_6" fill="white" d="m288.301,311.222l-23.411,0l0,2.779l23.411,0l0,-2.779z"/>
  <path id="svg_7" fill="#E9928B" d="m337.841,301.698l-10.761,0l-0.747,-5.026l-0.785,-5.267l11.464,-1.653l0.483,6.92l0.346,5.026z"/>
  <path id="svg_8" fill="#E9928B" d="m288.301,291.646l-0.708,5.025l-0.714,5.025l-10.404,0l0.653,-5.025l0.648,-5.025l10.525,0z"/>
  <path id="svg_9" fill="#DE6667" d="m277.776,291.646l10.525,0l-0.708,5.025l-10.465,0l0.648,-5.025z"/>
  <path id="svg_10" fill="#DE6667" d="m337.495,296.672l-11.162,0l-0.785,-5.267l11.464,-1.653l0.483,6.92z"/>
  <path id="svg_11" fill="#5F6386" d="m340.443,294.129l-16.789,0c0,0 -13.007,-46.366 -14.423,-52.995c-1.417,-6.618 -6.309,-21.211 -6.309,-21.211l-12.611,74.2l-14.808,0c0,0 -0.62,-35.721 0,-47.552c0.494,-9.447 3.009,-39.566 5.568,-54.566c0.647,-3.784 1.295,-6.602 1.91,-7.887c3.075,-6.387 40.673,7.332 40.673,7.332c0,0 0.258,1.456 0.703,3.982c1.438,8.14 4.842,27.358 7.972,44.515c4.09,22.48 8.114,54.182 8.114,54.182z"/>
  <path id="svg_12" fill="#4A4E73" d="m302.922,219.928l-5.639,-19.949c0,0 -5.792,11.04 -4.139,19.949c1.658,8.908 -5.068,12.187 -0.297,21.683c4.771,9.502 -2.097,16.752 2.531,22.689l7.544,-44.372z"/>
  <path id="svg_13" fill="#4A4E73" d="m324.356,195.444c-4.441,0.955 -9.904,0.955 -16.526,-0.885c-15.021,-4.168 -22.96,-3.553 -26.765,-2.548c0.648,-3.784 1.296,-6.602 1.911,-7.887c3.074,-6.387 40.672,7.332 40.672,7.332c0,0 0.264,1.461 0.708,3.988z"/>
  <path id="svg_14" fill="#E9928B" d="m266.07,103.221c0,0 -0.944,-4.9045 1.181,-7.4364c2.125,-2.532 7.192,1.406 7.192,1.406c0,0 3.283,3.5314 1.592,6.8484c-1.691,3.323 -9.965,-0.818 -9.965,-0.818z"/>
  <path id="svg_15" fill="#999999" d="m330.797,143.998c-2.059,11.94 -5.436,25.231 -5.013,31.141c0.785,11.04 1.263,15.142 1.894,17.191c0.626,2.054 -9.3,3.784 -20.023,0c-5.167,-1.829 -11.733,-2.955 -17.136,-3.636c-5.814,-0.725 -10.294,-0.934 -10.294,-0.934c0,0 2.998,-15.933 3.942,-24.292c0.95,-8.359 -0.055,-17.976 -0.055,-17.976c0,0 -0.005,0.005 -0.016,0.016c-0.461,0.357 -12.189,9.326 -18.223,3.515c-0.873,-0.84 -1.532,-2.01 -2.02,-3.422c-3.959,-11.484 3.607,-39.22 3.607,-39.22l8.988,1.263c0,0 -1.263,21.607 -0.473,21.766c0.786,0.159 9.301,-7.568 13.402,-10.567c2.295,-1.681 6.161,-2.669 10.234,-3.109c3.196,-0.335 6.518,-0.329 9.312,-0.049c0,0 4.145,0.093 9.131,1.164c3.975,0.846 8.477,2.312 11.837,4.828c3.503,2.636 2.701,11.968 0.906,22.321z"/>
  <g id="svg_16" opacity="0.65">
   <path id="svg_17" fill="#7f7f7f" d="m327.673,192.329c0.626,2.054 -9.301,3.784 -20.023,0c-5.167,-1.829 -11.733,-2.955 -17.136,-3.636c1.982,-2.472 5.37,-4.976 12.408,-7.058c17.262,-5.113 0.785,-13.901 10.69,-19.657c9.905,-5.75 10.745,-23.353 10.745,-23.353l6.435,5.366c-2.059,11.94 -5.436,25.232 -5.013,31.141c0.79,11.045 1.263,15.143 1.894,17.197z" opacity="0.65"/>
  </g>
  <path id="svg_18" fill="white" d="m318.042,116.848c-4.37,8.178 -16.751,15.329 -16.751,15.329c-2.135,-6.179 -1.899,-13.528 -1.691,-16.45c3.196,-0.335 6.517,-0.329 9.312,-0.049c0,0.005 4.145,0.099 9.13,1.17z"/>
  <path id="svg_19" fill="#999999" d="m323.89,119.88221c2.158,-2.4 6.621,-0.313 12.139,7.728c5.518,8.04 10.245,25.863 11.195,32.014c0.944,6.152 -0.472,27.286 -3.47,36.431l-8.054,-0.632c0,0 -2.037,-30.279 -2.35,-32.328c-0.313,-2.048 -6.781,-18.295 -9.46,-27.126c-2.679,-8.832 -2.839,-12.935 0,-16.087z"/>
  <path id="svg_20" fill="#E9928B" d="m315.451,116.864c0,1.187 -1.734,3.23 -5.99,4.021c-4.255,0.785 -9.46,-2.285 -7.884,-4.339c0.588,-0.769 0.95,-2.296 1.164,-3.911c0.363,-2.697 0.335,-5.629 0.335,-5.629c0,0 9.218,-8.5959 9.142,-4.18c-0.083,4.416 3.228,5.207 3.228,5.207c-1.093,4.888 0.005,7.65 0.005,8.831z"/>
  <path id="svg_21" fill="#DE6667" d="m312.223,102.826c-2.46,6.201 -6.325,8.771 -9.482,9.809c0.363,-2.697 0.335,-5.63 0.335,-5.63c0,0 9.224,-8.5896 9.147,-4.179z"/>
  <path id="svg_22" fill="#8FB9CF" d="m278.061,98.186l-16.421,21.145c-0.225,0.291 -0.555,0.467 -0.895,0.511c-0.341,0.044 -0.703,-0.044 -0.994,-0.274c-2.427,-1.89 -2.866,-5.388 -0.983,-7.816l13.831,-17.8116l5.462,4.2456z"/>
  <path id="svg_23" fill="#7A9DB0" d="m278.062,98.1856l-16.422,21.1454c-0.225,0.291 -0.555,0.467 -0.895,0.511c-1.126,-1.906 -1.038,-4.389 0.401,-6.239l13.83,-17.812l3.086,2.3946z"/>
  <path id="svg_24" fill="#8FB9CF" d="m285.413,96.6913c-2.415,3.1086 -5.034,5.1137 -5.852,4.4817c-0.818,-0.637 0.477,-3.6689 2.893,-6.783c2.416,-3.1087 5.035,-5.1133 5.853,-4.4817c0.818,0.6316 -0.478,3.6743 -2.894,6.783z"/>
  <path id="svg_25" fill="#8FB9CF" d="m278.147,81.9785l-8.761,11.2813l10.18,7.9112l8.761,-11.2808l-10.18,-7.9117z"/>
  <path id="svg_26" fill="#7A9DB0" d="m282.871,95.6645l-5.951,-4.6245c-0.335,-0.2581 -0.396,-0.736 -0.132,-1.071c0.258,-0.335 0.736,-0.3954 1.07,-0.1318l5.952,4.6245c0.335,0.2581 0.395,0.736 0.132,1.071c-0.258,0.3295 -0.741,0.3899 -1.071,0.1318z"/>
  <path id="svg_27" fill="#7A9DB0" d="m285.078,92.3364l-5.951,-4.6245c-0.335,-0.2581 -0.396,-0.736 -0.132,-1.071c0.258,-0.335 0.736,-0.3955 1.071,-0.1318l5.951,4.6245c0.335,0.2581 0.395,0.736 0.132,1.071c-0.258,0.3295 -0.741,0.3899 -1.071,0.1318z"/>
  <path id="svg_28" fill="#7A9DB0" d="m280.231,98.5757l-5.952,-4.6245c-0.335,-0.2582 -0.395,-0.736 -0.132,-1.0711c0.258,-0.335 0.736,-0.3954 1.071,-0.1318l5.951,4.6246c0.335,0.2581 0.396,0.7359 0.132,1.071c-0.258,0.3295 -0.741,0.3899 -1.07,0.1318z"/>
  <path id="svg_29" fill="#B2D3E4" d="m275.234,88.7779l-0.011,0.0165c-0.346,0.4504 -0.697,0.8733 -1.048,1.2687c-0.407,0.4559 -0.802,0.8733 -1.192,1.2523c-1.62,1.5653 -3.042,2.3782 -3.602,1.9443l-0.016,0.0219l-43.632,-16.1583l25.969,-33.4426l26.442,38.2978l-0.016,0.022c0.488,0.3789 0.219,1.6257 -0.593,3.2294c-0.171,0.3351 -0.363,0.6866 -0.582,1.049c-0.225,0.379 -0.473,0.769 -0.747,1.1644c-0.302,0.4394 -0.626,0.8898 -0.972,1.3346z"/>
  <path id="svg_30" fill="white" d="m275.235,88.7774l-0.011,0.0165l-35.595,-26.7366l4.409,-5.6735l32.168,31.0699c-0.302,0.4284 -0.626,0.8788 -0.971,1.3237z" opacity="0.15"/>
  <path id="svg_31" fill="white" d="m274.168,90.063c-0.406,0.4559 -0.801,0.8733 -1.191,1.2523l-41.804,-21.1124l6.517,-4.6795l36.478,24.5396z" opacity="0.15"/>
  <path id="svg_32" fill="white" d="m276.952,86.2787l-31.289,-33.7557l2.086,-1.9058l29.785,34.607c-0.17,0.335 -0.368,0.692 -0.582,1.0545z" opacity="0.15"/>
  <path id="svg_33" fill="#8FB9CF" d="m243.11,63.8144c-2.021,2.6034 -4.09,4.9431 -6.072,6.9203l-0.006,0c-5.057,5.0474 -9.564,7.7386 -11.305,6.382c-2.426,-1.8893 1.417,-10.9022 8.587,-20.1347c7.171,-9.2326 14.956,-15.1917 17.383,-13.3024c1.746,1.3566 0.252,6.3876 -3.388,12.5389c-1.422,2.4112 -3.179,4.998 -5.199,7.5959z"/>
  <path id="svg_34" fill="#8FB9CF" d="m242.824,84.8327c-0.312,-0.2416 -0.367,-0.6975 -0.126,-1.0105c0.242,-0.3131 0.698,-0.368 1.01,-0.1264c0.615,0.4779 3.223,-0.3954 7.61,-4.7728l0.352,-0.3515c1.416,-1.4444 2.822,-3.0592 4.189,-4.8167c1.482,-1.9059 2.789,-3.8172 3.887,-5.679c3.157,-5.3331 3.354,-8.0792 2.74,-8.5571c-0.313,-0.2416 -0.368,-0.6975 -0.127,-1.0105c0.242,-0.3131 0.698,-0.368 1.011,-0.1264c2.338,1.818 -0.89,7.8925 -2.383,10.4189c-1.131,1.9113 -2.471,3.8721 -3.986,5.8274c-1.516,1.9497 -3.08,3.7347 -4.656,5.3055l-0.456,0.4449c-2.3,2.2244 -6.879,6.1459 -9.065,4.4542z"/>
  <path id="svg_35" fill="#7A9DB0" d="m243.11,63.8144c-2.021,2.6033 -4.091,4.9431 -6.073,6.9203l-0.005,0c-2.586,-3.3448 -2.696,-8.1341 0.016,-11.6272c2.713,-3.4931 7.379,-4.5696 11.261,-2.8945c-1.422,2.4167 -3.179,5.0035 -5.199,7.6014z"/>
  <path id="svg_36" fill="white" d="m242.347,61.4796c-0.719,0.9282 -1.812,1.2852 -2.438,0.7964c-0.625,-0.4888 -0.549,-1.6312 0.171,-2.5594c0.719,-0.9282 1.811,-1.2852 2.437,-0.7964c0.626,0.4833 0.549,1.6312 -0.17,2.5594z" opacity="0.15"/>
  <path id="svg_37" fill="#E9928B" d="m276.437,107.638c0,0 -0.313,-6.646 -2.262,-8.9032c-1.955,-2.2574 -3.591,-1.8454 -3.256,0c0.34,1.8452 1.828,5.0862 0.384,8.1562l5.134,0.747z"/>
  <path id="svg_38" fill="#4A4E73" d="m274.136,288.226l0,6.53l16.532,0l1.499,-6.53l-18.031,0z"/>
  <path id="svg_39" fill="#4A4E73" d="m322.896,294.756l18.695,0l-0.544,-6.53l-20.128,0l1.977,6.53z"/>
  <path id="svg_40" fill="white" d="m335.085,305.179l-0.456,-0.153c0.022,-0.066 0.554,-1.56 3.739,-2.73l0.165,0.45c-2.932,1.077 -3.443,2.417 -3.448,2.433z"/>
  <path id="svg_41" fill="white" d="m338.687,306.981l-0.461,-0.121c0.027,-0.099 0.664,-2.417 3.305,-3.147l0.126,0.461c-2.372,0.654 -2.948,2.719 -2.97,2.807z"/>
  <path id="svg_42" fill="white" d="m343.073,306.943l-0.477,-0.044c0.005,-0.055 0.131,-1.4 1.004,-2.312l0.346,0.329c-0.752,0.791 -0.873,2.016 -0.873,2.027z"/>
  <path id="svg_43" fill="white" d="m280.098,303.548c-2.404,-0.928 -4.848,-0.867 -4.87,-0.867l-0.016,-0.478c0.11,-0.006 2.564,-0.066 5.057,0.901l-0.171,0.444z"/>
  <path id="svg_44" fill="white" d="m277.337,305.317c-2.597,-1.148 -4.557,-1.28 -4.573,-1.285l0.027,-0.478c0.083,0.005 2.054,0.137 4.738,1.323l-0.192,0.44z"/>
  <path id="svg_45" fill="white" d="m273.159,306.179c-0.736,-0.665 -2.729,-0.972 -2.751,-0.972l0.072,-0.473c0.087,0.011 2.152,0.335 2.997,1.093l-0.318,0.352z"/>
  <g id="svg_46" opacity="0.65">
   <path id="svg_47" fill="#666666" d="m286.308,132.5586c-1.664,4.317 -2.207,12.352 -2.207,12.352c0,0 -0.006,0.005 -0.017,0.016c-0.461,0.357 -12.188,9.326 -18.222,3.515c-0.873,-0.84 -1.532,-2.01 -2.021,-3.421c3.338,0.461 6.193,3.976 10.147,-0.105c6.138,-6.349 12.32,-12.357 12.32,-12.357z" opacity="0.65"/>
  </g>
  <path id="svg_48" fill="#E9928B" d="m300.874,85.8779c0,0 -6.545,17.9761 -1.576,21.6071c4.969,3.625 12.93,-4.652 12.93,-4.652c0,0 3.388,0.159 5.205,-2.604c1.812,-2.7568 -1.34,-3.9706 -2.756,-3.0864c-1.417,0.8788 -3.075,-0.4613 -1.971,-3.8501c1.103,-3.3887 0.472,-3.548 -1.658,-3.0756c-2.136,0.4668 -9.938,-3.3943 -10.174,-4.339z"/>
  <path id="svg_49" fill="#4A4E73" d="m337.132,288.318c-6.962,-52.023 -18.497,-91.661 -18.612,-92.056l1.378,-0.407c0.115,0.396 11.684,40.144 18.656,92.271l-1.422,0.192z"/>
  <path id="svg_50" fill="#91415C" d="m560.542,101.439c0,0 -2.055,-6.8569 -2.055,-9.0535c0,-2.1966 2.009,-8.3672 3.13,-8.5035c1.121,-0.1363 3.311,11.9321 4.275,13.5783c0.96,1.6462 -0.822,3.9787 -0.822,3.9787l-4.528,0z"/>
  <path id="svg_51" fill="#91415C" d="m458.162,253.441l-7.289,-8.034l2.796,-2.868l5.659,-5.802l6.981,7.691l-5.452,6.029l-2.695,2.984z"/>
  <path id="svg_52" fill="#75354A" d="m460.857,250.457l-7.188,-7.918l5.659,-5.802l6.981,7.691l-5.452,6.029z"/>
  <path id="svg_53" fill="#FDAB3F" d="m450.873,245.407l7.289,8.029c0,0 -0.399,6.943 2.71,11.195c3.115,4.252 3.948,7.221 2.524,10.372l-21.68,-23.89l9.157,-5.706z"/>
  <path id="svg_54" fill="white" d="m458.091,256.315c-1.686,-1.222 -5.648,-2.323 -5.689,-2.333l0.116,-0.424c0.167,0.045 4.079,1.131 5.831,2.398l-0.258,0.359z"/>
  <path id="svg_55" fill="white" d="m458.414,258.638c-2.004,-0.843 -5.128,-0.505 -5.158,-0.5l-0.051,-0.439c0.131,-0.015 3.276,-0.354 5.381,0.535l-0.172,0.404z"/>
  <path id="svg_56" fill="white" d="m455.062,261.834l-0.162,-0.409c0.086,-0.035 2.136,-0.828 4.104,-0.954l0.025,0.439c-1.892,0.121 -3.947,0.919 -3.967,0.924z"/>
  <path id="svg_57" fill="#DCECEB" d="m441.734,251.102l-1.734,1.575l21.682,23.89l1.734,-1.575l-21.682,-23.89z"/>
  <path id="svg_58" fill="#489DA2" d="m513.512,181.955c0,0 -0.136,0.752 -0.389,2.04c-0.53,2.737 -1.58,7.903 -2.928,13.437c-1.741,7.115 -3.982,14.841 -6.284,18.815c-2.665,4.595 -13.634,14.29 -23.154,22.233c-8.097,6.751 -15.144,12.235 -15.144,12.235l-14.739,-15.128c0,0 30.498,-27.5 31.321,-28.596c0.823,-1.101 4.442,-17.078 5.815,-29.697c0.596,-5.463 2.267,-11.285 3.973,-16.133c2.231,-6.347 4.523,-11.023 4.523,-11.023l14.26,5.211l0.141,1.338l1.383,13.412l1.222,11.856z"/>
  <path id="svg_59" fill="#408C91" d="m513.122,183.995c-0.53,2.737 -1.58,7.903 -2.927,13.437c-1.742,7.115 -3.983,14.841 -6.285,18.815c-2.665,4.595 -13.634,14.29 -23.154,22.233c2.281,-12.417 16.966,-11.301 14.79,-20.38c-2.261,-9.463 7.198,-13.169 3.427,-25.51c-3.77,-12.347 2.332,-20.572 2.332,-20.572c0,0 5.533,5.524 11.817,11.977z"/>
  <path id="svg_60" fill="#91415C" d="m543.142,85.3924c0,0 -2.494,1.9189 -4.276,5.903c-0.697,1.5553 -1.282,3.4236 -1.57,5.6151c-1.03,7.8165 -14.603,-0.616 -14.603,-0.616l6.582,-13.7854l5.391,-2.8782l4.2,2.858l4.276,2.9035z"/>
  <path id="svg_61" fill="#b4ac9e" d="m522.698,94.34c0,0 1.075,-3.3529 2.595,-3.4792c1.519,-0.1211 12.624,1.4998 13.139,4.0801c0.515,2.5854 0,4.2316 0,4.2316l-15.734,-4.8325z"/>
  <path id="svg_62" fill="#b4ac9e" d="m564.792,106.242l1.096,-5.075c0,0 -5.073,-1.3181 -6.992,-1.071c-1.918,0.248 -3.7,6.146 -3.7,6.146l9.596,0z"/>
  <path id="svg_63" fill="#b4ac9e" d="m536.272,132.712c0,0 7.107,1.908 22.13,-11.589c15.022,-13.498 -12.463,-8.165 -12.463,-8.165l-9.667,19.754z"/>
  <path id="svg_64" fill="#040707" d="m562.192,257.184l-45.783,0l0,1.323l45.783,0l0,-1.323z"/>
  <path id="svg_65" fill="#040707" d="m534.198,307.341l-13.938,-64.104l-13.937,64.104l-1.292,-0.282l14.583,-67.074c0.066,-0.303 0.334,-0.52 0.646,-0.52c0.313,0 0.581,0.217 0.647,0.52l14.583,67.074l-1.292,0.282z"/>
  <path id="svg_66" fill="#91415C" d="m534.546,269.409l-10.843,0l-0.242,-3.999l-0.49,-8.09l10.379,0l0.802,8.09l0.394,3.999z"/>
  <path id="svg_67" fill="#75354A" d="m534.152,265.41l-10.691,0l-0.49,-8.09l10.379,0l0.802,8.09z"/>
  <path id="svg_68" fill="#FDAB3F" d="m523.703,269.409l10.843,0c0,0 4.871,4.964 10.111,5.514c5.239,0.551 7.995,1.929 9.373,5.1l-32.255,0l1.928,-10.614z"/>
  <path id="svg_69" fill="white" d="m531.078,274.039l-0.237,-0.374c0.146,-0.091 3.579,-2.262 5.694,-2.701l0.091,0.429c-2.03,0.429 -5.513,2.626 -5.548,2.646z"/>
  <path id="svg_70" fill="white" d="m534.728,276.201l-0.359,-0.257c0.076,-0.106 1.938,-2.661 4.013,-3.626l0.187,0.399c-1.974,0.914 -3.826,3.459 -3.841,3.484z"/>
  <path id="svg_71" fill="white" d="m538.68,277.346l-0.414,-0.156c0.035,-0.086 0.823,-2.141 2.05,-3.676l0.343,0.277c-1.181,1.475 -1.974,3.535 -1.979,3.555z"/>
  <path id="svg_72" fill="#DCECEB" d="m554.03,280.028l-32.255,0l0,2.343l32.255,0l0,-2.343z"/>
  <path id="svg_73" fill="#040707" d="m580.112,307.341l-13.942,-64.104l-13.942,64.104l-1.292,-0.282l14.583,-67.074c0.066,-0.303 0.333,-0.52 0.646,-0.52c0.313,0 0.581,0.217 0.646,0.52l14.584,67.074l-1.283,0.282z"/>
  <path id="svg_74" fill="#040707" d="m556.983,281.71l-45.91,0l0,1.323l45.91,0l0,-1.323z"/>
  <path id="svg_75" fill="#489DA2" d="m541.053,263.683l-22.211,0c0,0 0.434,-37.019 0.434,-43.603c0,-4.681 -4.437,-12.412 -9.076,-22.653c-1.883,-4.161 -3.796,-8.736 -5.461,-13.694c-2.322,-6.923 -3.711,-12.882 -4.538,-17.532c-1.222,-6.863 -1.222,-10.862 -1.222,-10.862l11.933,1.338l17.41,1.954c0,0 1.908,6.746 4.275,15.457c3.776,13.912 8.718,32.827 8.885,37.215c0.272,7.135 -0.429,52.38 -0.429,52.38z"/>
  <path id="svg_76" fill="#408C91" d="m532.597,174.093c-4.815,-2.03 -9.772,-3.974 -14.699,-3.727c-1.908,0.096 -3.791,-0.01 -5.613,-0.272c-4.483,-0.631 -8.632,-2.177 -12.095,-3.888c-3.624,-1.788 -6.496,-3.762 -8.212,-5.05c2.231,-6.347 4.522,-11.023 4.522,-11.023l14.26,5.211l0.142,1.338l17.41,1.954c0.01,0 1.918,6.747 4.285,15.457z"/>
  <path id="svg_77" fill="#e8e6d7" d="m601.676,104.939c0,0 -18.51,18.108 -23.856,19.34c-5.345,1.232 -25.092,-5.145 -28.383,-4.938c-1.49,0.096 -4.629,10.559 -7.607,21.991c-3.61,13.815 -6.997,29.035 -6.997,29.035c0,0 -9.252,-3.701 -24.27,-4.732c-2.211,-0.151 -4.209,-0.479 -6.012,-0.934c-10.459,-2.62 -14.345,-9.352 -14.345,-9.352c14.81,-21.193 15.012,-39.71 18.101,-51.228c3.084,-11.5228 15.426,-12.3458 24.679,-9.4625c4.099,1.2775 12.958,2.8782 17.071,4.3224c4.114,1.4391 25.3,9.6701 26.739,9.6701c1.438,0 18.919,-9.8771 18.919,-9.8771c5.547,-0.0101 5.961,6.1651 5.961,6.1651z"/>
  <path id="svg_78" fill="#91415C" d="m596.053,100.06c0,0 3.564,-3.1507 6.583,-4.3828c3.018,-1.2321 7.127,-3.767 7.127,-2.4339c0,1.3331 -3.7,3.2216 -3.7,3.2216l11.277,-1.0251c0,0 -4.972,5.0392 -8.945,5.9992c-3.978,0.959 -9.051,2.742 -9.051,2.742l-3.291,-4.121z"/>
  <path id="svg_79" fill="#003f7f" d="m628.689,54.8424l-67.901,5.6644l3.281,39.3646l67.902,-5.6644l-3.282,-39.3646z"/>
  <path id="svg_80" fill="white" d="m624.931,59.2852l-59.702,4.9804l2.597,31.1626l59.703,-4.9805l-2.598,-31.1625z"/>
  <path id="svg_81" fill="#003f7f" d="m574.176,95.3601l11.615,-24.6521l15.532,22.3848l-27.147,2.2673z"/>
  <path id="svg_82" fill="#003f7f" d="m600.092,93.244l8.98,-19.0672l12.014,17.315l-20.994,1.7522z"/>
  <path id="svg_83" fill="#003f7f" d="m597.915,72.3291c2.236,-0.1102 3.959,-2.0127 3.849,-4.2494c-0.11,-2.2367 -2.012,-3.9607 -4.248,-3.8505c-2.236,0.1102 -3.959,2.0127 -3.849,4.2495c0.11,2.2367 2.012,3.9606 4.248,3.8504z"/>
  <path id="svg_84" fill="#408C91" d="m535.505,263.849l-1.323,0c0,-0.399 0.051,-39.751 -0.176,-49.234c-0.227,-9.362 -16.552,-47.345 -16.714,-47.729l1.212,-0.525c0.676,1.571 16.592,38.599 16.824,48.219c0.233,9.503 0.177,48.87 0.177,49.269z"/>
  <path id="svg_85" fill="#b4ac9e" d="m541.829,141.9064c-3.609,13.816 -6.996,29.035 -6.996,29.035c0,0 -9.253,-3.701 -24.27,-4.731c-2.211,-0.152 -4.21,-0.48 -6.012,-0.934c0.344,-0.384 0.717,-0.758 1.126,-1.121c12.387,-11.109 17.021,-3.702 23.084,-11.725c4.527,-5.999 8.924,-6.333 13.068,-10.524z"/>
  <path id="svg_86" fill="#0C1B3C" d="m548.609,66.4611l2.261,-2.3682c0,0 0.207,-4.2164 -4.043,-9.7053c-4.25,-5.4889 -6.719,-3.4287 -4.801,0c1.919,3.4286 -3.841,1.6461 -8.98,0.9594c-5.138,-0.6867 -9.389,0.0404 -6.855,3.3832c2.539,3.3378 0.344,3.4741 -5.966,6.0848c-6.31,2.6106 -5.346,6.4483 0,6.8573c5.346,0.409 1.787,3.565 -2.327,7.9531c-4.119,4.3881 -0.964,6.8573 3.564,4.3881c4.522,-2.4693 5.487,0.2727 3.977,4.1154c-1.509,3.8427 3.842,0.5504 6.305,-2.1966c2.468,-2.7419 1.782,2.0552 5.553,-3.979c3.775,-6.0242 11.312,-15.4922 11.312,-15.4922z"/>
  <path id="svg_87" fill="#75354A" d="m543.142,85.392c0,0 -2.494,1.9188 -4.275,5.9029c-3.004,-3.1913 -1.278,-8.6752 -1.278,-8.6752l1.278,-0.1363l4.275,2.9086z"/>
  <path id="svg_88" fill="#91415C" d="m550.876,64.0982c0,0 -0.687,6.9634 0.615,10.5284c1.303,3.565 2.605,3.7013 1.03,5.0748c-1.575,1.3735 -2.604,1.0957 -2.948,2.6763c-0.343,1.5754 0.344,6.9936 -3.634,6.8573c-3.978,-0.1363 -8.228,-5.8272 -8.637,-7.2714c0,0 -4.179,-1.3735 -4.25,-4.8678c-0.071,-3.4993 3.362,-4.6658 4.73,-3.0196c1.373,1.6461 2.877,-0.4797 2.948,-3.0853c0.07,-2.6056 1.716,-6.3069 4.522,-6.105c2.812,0.2071 4.114,-2.6055 5.624,-0.7877z"/>
  <path id="svg_89" fill="#ADCCC7" d="m1212.48,309.944c0,0 0.05,-30.759 -33.62,-15.8c0,0 -7.4,-26.479 -26.79,-25.227c-19.39,1.252 -21.27,26.31 -21.27,26.31c0,0 -26.55,-13.502 -40.8,13.881l122.48,0.836z"/>
  <path id="svg_90" fill="#6EAB9C" d="m1155.76,308.852l-0.83,-0.114c2.25,-16.019 -6.38,-27.506 -6.47,-27.621l0.67,-0.507c0.08,0.115 8.92,11.881 6.63,28.242z"/>
  <path id="svg_91" fill="#6EAB9C" d="m1156.06,299.022l-0.67,-0.493c0.07,-0.11 7.95,-10.944 9.29,-17.755l0.82,0.16c-1.37,6.998 -9.11,17.641 -9.44,18.088z"/>
  <path id="svg_92" fill="#6EAB9C" d="m1155.69,304.7c-6.15,-0.384 -11.59,-7.665 -11.82,-7.975l0.67,-0.494c0.06,0.074 5.44,7.277 11.2,7.638l-0.05,0.831z"/>
  <path id="svg_93" fill="#6EAB9C" d="m1175.41,308.742l1.12,-0.804c0.11,-0.077 10.77,-7.632 22.18,-8.167l0.04,0.832c-8.94,0.415 -17.42,5.253 -20.51,7.203l11.07,-0.384l0.03,0.832l-13.93,0.488z"/>
  <path id="svg_94" fill="#6EAB9C" d="m1184.18,304.417l-0.79,-0.27c1.75,-5.111 5.45,-9.943 5.61,-10.149l0.66,0.507c-0.04,0.05 -3.77,4.933 -5.48,9.912z"/>
  <path id="svg_95" fill="#6EAB9C" d="m1130.61,308.596c-0.08,-0.069 -8.35,-7.016 -17.57,-10.255l0.27,-0.785c9.37,3.288 17.75,10.332 17.84,10.4l-0.54,0.64z"/>
  <path id="svg_96" fill="#6EAB9C" d="m1109.11,306.162l-0.38,-0.745c0.24,-0.123 6.07,-3.042 16.78,-1.548l-0.11,0.826c-10.44,-1.448 -16.24,1.439 -16.29,1.467z"/>
  <path id="svg_97" fill="#ADCCC7" d="m231.479,309.944c0,0 0.051,-30.759 -33.619,-15.8c0,0 -7.402,-26.479 -26.789,-25.227c-19.392,1.252 -21.269,26.31 -21.269,26.31c0,0 -26.556,-13.502 -40.802,13.881l122.479,0.836z"/>
  <path id="svg_98" fill="#6EAB9C" d="m174.76,308.852l-0.827,-0.114c2.242,-16.019 -6.383,-27.506 -6.47,-27.621l0.662,-0.507c0.087,0.115 8.922,11.881 6.635,28.242z"/>
  <path id="svg_99" fill="#6EAB9C" d="m175.062,299.022l-0.676,-0.493c0.077,-0.11 7.954,-10.944 9.296,-17.755l0.818,0.16c-1.375,6.998 -9.11,17.641 -9.438,18.088z"/>
  <path id="svg_100" fill="#6EAB9C" d="m174.687,304.7c-6.15,-0.384 -11.589,-7.665 -11.817,-7.975l0.671,-0.494c0.055,0.074 5.438,7.277 11.196,7.638l-0.05,0.831z"/>
  <path id="svg_101" fill="#6EAB9C" d="m194.413,308.742l1.118,-0.804c0.105,-0.077 10.767,-7.632 22.178,-8.167l0.041,0.832c-8.936,0.415 -17.424,5.253 -20.511,7.203l11.073,-0.384l0.027,0.832l-13.926,0.488z"/>
  <path id="svg_102" fill="#6EAB9C" d="m203.179,304.417l-0.79,-0.27c1.754,-5.111 5.452,-9.943 5.607,-10.149l0.662,0.507c-0.036,0.05 -3.771,4.933 -5.479,9.912z"/>
  <path id="svg_103" fill="#6EAB9C" d="m149.61,308.596c-0.082,-0.069 -8.351,-7.016 -17.574,-10.255l0.274,-0.785c9.374,3.288 17.752,10.332 17.839,10.4l-0.539,0.64z"/>
  <path id="svg_104" fill="#6EAB9C" d="m128.109,306.162l-0.379,-0.745c0.242,-0.123 6.068,-3.042 16.785,-1.548l-0.114,0.826c-10.438,-1.448 -16.237,1.439 -16.292,1.467z"/>
  <path id="svg_105" fill="#EB908B" d="m1190,42l55.27,0l0,19.0425l-9.85,0l5.14,12.1088l-18.37,-12.1088l-32.19,0l0,-19.0425z"/>
  <path id="svg_106" fill="white" d="m1239.53,47.5635l-42.97,0l0,2.1011l42.97,0l0,-2.1011z"/>
  <path id="svg_107" fill="white" d="m1239.53,53.4004l-42.97,0l0,2.1011l42.97,0l0,-2.1011z"/>
  <path id="svg_108" fill="#7bae8d" d="m1443,308l-1443,0l0,6l1443,0l0,-6z"/>
  <path id="svg_109" fill="#0C1B3C" d="m1371.14,132.245c-0.42,0.552 -0.92,0.968 -1.46,1.265c-4.51,2.48 -12.6,-2.919 -16.3,-2.745c-4.15,0.201 -6.12,5.627 -15.89,1.777c-9.77,-3.851 -7.5,-19.047 -6.9,-24.775c0.59,-5.724 -2.96,-8.5874 -9.08,-8.391c-6.12,0.2009 -12.57,-3.1563 -9.79,-12.8305c2.78,-9.6697 -5.06,-14.7444 -9.75,-13.027c-4.68,1.7175 -2.17,-6.5134 -2.17,-6.5134c0,0 4.01,-5.705 11.92,-4.8783c2.48,0.2604 4.27,1.078 5.63,2.2107c0,0 0.01,0.0001 0.01,0.0092c0.32,0.2649 0.61,0.5481 0.89,0.8405c0,0.0091 0.01,0.0136 0.02,0.0228c2.28,2.4802 3.18,5.9471 4.63,8.6009c2.37,4.3438 6.31,4.0469 12.43,2.1741c6.12,-1.8773 18.45,-1.0094 21.11,9.2176c2.67,10.2269 -4.43,22.1714 8.3,25.1354c12.72,2.951 10.35,16.773 6.4,21.907z"/>
  <path id="svg_110" fill="#3FB8A9" d="m1300.28,66.1873c0,0 3.69,2.4345 3.27,7.3722c0,0 0,1.4251 -1.62,0.6943c-1.62,-0.7308 -2.94,-6.0796 -2.8,-7.2307c0.15,-1.1556 0.74,-0.9729 1.15,-0.8358z"/>
  <path id="svg_111" fill="#0C1B3C" d="m1298.72,88.2214c-5.65,4.933 -8.43,4.5904 -10.08,2.1696c-0.61,-0.8998 -2.32,-3.1334 -4.23,-5.5771c-3.19,-4.1154 -6.93,-8.8293 -6.93,-8.8293c0,0 -5.92,-0.3745 -6.05,-4.9559c-0.02,-0.877 0.14,-1.7539 0.49,-2.6035c1.46,-3.5993 6.09,-6.7144 12.53,-7.2443c7.97,-0.6577 15.2,3.2933 17.31,8.8201c2.09,5.5223 2.62,13.2873 -3.04,18.2204z"/>
  <g id="svg_112" opacity="0.52">
   <path id="svg_113" fill="#1B5175" d="m1284.41,84.814c-3.19,-4.1154 -6.93,-8.8293 -6.93,-8.8293c0,0 -5.92,-0.3745 -6.05,-4.9558c-0.02,-0.877 0.14,-1.754 0.49,-2.6036c1.18,-1.8407 3.39,-3.4257 7.53,-2.905c8.88,1.1191 4.76,15.9594 6.95,17.5215c0.8,0.5755 -0.28,1.2059 -1.99,1.7722z" opacity="0.52"/>
  </g>
  <path id="svg_114" fill="#FFAC95" d="m1252.95,176.167c0,0 -3.14,0.923 -4.69,2.087c-1.54,1.165 -5.29,2.974 -5.37,3.581c-0.07,0.608 3.16,-0.338 4.42,-0.831c1.27,-0.493 1.07,0.722 -0.51,2.22c-1.58,1.498 -2.22,2.156 -4.04,3.54c-1.82,1.388 -2.03,2.01 -1.33,2.261c0.7,0.251 1.35,-0.206 1.35,-0.206c0,0 -1.64,1.243 -0.99,1.937c0.65,0.694 2.65,-0.781 2.65,-0.781c0,0 -0.57,1 0.81,0.968c1.38,-0.032 1.85,-0.653 3.48,-1.133c1.63,-0.479 6.54,-5.663 7.68,-7.468c1.15,-1.804 1.72,-3.366 1.72,-3.366l-5.18,-2.809z"/>
  <path id="svg_115" fill="#F5911F" d="m1286.8,133.51c0,0 3.01,15.036 -4.34,23.455c-7.36,8.418 -24.12,23.815 -24.12,23.815l-6.17,-4.837c0,0 15.1,-19.988 17.17,-27.661c0.44,-1.636 0.86,-4.778 0.86,-4.778l16.6,-9.994z"/>
  <path id="svg_116" fill="#FFAC95" d="m1265.5,173.97c0,0 -0.47,-1.736 0.22,-3.257c0.7,-1.521 4,3.033 4,3.033l0.87,3.791l-5.09,-3.567z"/>
  <path id="svg_117" fill="#1B5175" d="m1346.95,277.194c2.82,3.033 8.8,14.452 8.8,14.452l-4.43,3.22c0,0 -5.07,-7.623 -6.12,-7.166c-1.05,0.456 -0.02,11.629 -1.43,12.652c-1.41,1.023 -10.77,7.829 -10.77,7.829c0,0 -0.4,-3.937 1.42,-7.573c1.62,-3.216 3.28,-9.848 -0.94,-19.847c-0.55,-1.297 -1.2,-2.649 -1.95,-4.056l9.72,-9.066c0,0 1.2,2.704 2.81,5.435c0.88,1.517 1.89,3.042 2.89,4.12z"/>
  <path id="svg_118" fill="#E9928B" d="m1331.53,276.71l9.72,-9.066c0,0 1.2,2.704 2.81,5.435l-10.58,7.683c-0.55,-1.293 -1.2,-2.645 -1.95,-4.052z"/>
  <path id="svg_119" fill="#5F6386" d="m1349.13,265.459l-21.58,14.745c0,0 -11.28,-13.882 -21.29,-26.639c-6.68,-8.519 -12.79,-16.53 -14.58,-19.591c-3.61,-6.166 -8.77,-30.539 -10.62,-39.679c-0.44,-2.174 -0.69,-3.489 -0.69,-3.489l2.64,-7.423l5.13,-14.411l0.38,-1.069c0,0 3.71,-1.909 7.83,-2.932c1.1,-0.274 2.23,-0.484 3.32,-0.58c3.36,-0.288 6.43,0.511 7.39,3.933c0.05,0.201 0.1,0.411 0.14,0.63c0.19,1.023 0.4,2.334 0.62,3.855c1.86,12.954 4.48,41.529 5.3,44.74c0.93,3.59 36.01,47.91 36.01,47.91z"/>
  <path id="svg_120" fill="#4A4E73" d="m1306.26,253.565c-6.68,-8.519 -12.79,-16.53 -14.58,-19.59c-3.61,-6.167 -8.77,-30.54 -10.62,-39.68c0.51,-2.046 0.91,-3.398 1.1,-3.69c1.11,-1.667 25.67,-17.787 25.67,-17.787c0,0 1.02,14.411 -3.85,23.606c-4.86,9.199 -9.03,15.941 -5.14,25.848c3.89,9.912 -4.45,15.617 2.23,21.176c3.85,3.215 4.95,7.272 5.19,10.117z"/>
  <path id="svg_121" fill="#1B5175" d="m1264.5,291.318c0.5,4.111 -1.37,16.868 -1.37,16.868l-5.47,0c0,0 0.37,-9.149 -0.75,-9.4c-1.12,-0.251 -6.85,9.4 -8.59,9.4c-1.75,0 -13.32,0 -13.32,0c0,0 1.99,-3.421 5.6,-5.289c3.2,-1.654 8.44,-6.043 10.9,-16.613c0.32,-1.37 0.59,-2.845 0.81,-4.426l13.19,-1.617c0,0 -0.62,2.892 -0.93,6.048c-0.17,1.735 -0.25,3.563 -0.07,5.029z"/>
  <path id="svg_122" fill="#E9928B" d="m1252.31,281.853l13.19,-1.617c0,0 -0.62,2.892 -0.93,6.048l-13.07,0c0.32,-1.375 0.59,-2.846 0.81,-4.431z"/>
  <path id="svg_123" fill="#5F6386" d="m1276.95,161.856c0,0 -18.94,44.484 -24.47,62.905c-5.52,18.426 -13.94,58.169 -13.94,58.169l28.94,0c0,0 11.32,-53.957 16.32,-62.645c5,-8.687 23.68,-40.273 20.78,-51.591c-2.9,-11.314 -27.63,-6.838 -27.63,-6.838z"/>
  <path id="svg_124" fill="#4A4E73" d="m1307.83,172.818l-8.78,22.797l-28.46,-18.078l17.56,-8.556l8.2,-4.001l2.3,-1.124l1.02,0.544l7.39,3.933c0.06,0.201 0.11,0.411 0.15,0.63c0.19,1.019 0.4,2.33 0.62,3.855z"/>
  <path id="svg_125" fill="#FFAB40" d="m1293,101.86c0,0 -6.84,2.878 -12.63,10.775c-5.79,7.898 -12.63,22.578 -13.15,25.369c-0.53,2.791 4.51,24.971 4.49,30.695c-0.02,5.723 26.92,3.608 34.55,-0.078c0,0 -2.99,-20.979 -2.99,-23.875c0,-2.896 0.26,-22.372 -1.32,-31.32c-1.58,-8.948 -8.95,-11.566 -8.95,-11.566z"/>
  <path id="svg_126" fill="#F5911F" d="m1291.37,122.497c0,0 -1.08,7.203 0,12.625c1.08,5.422 -7.38,2.124 -10.31,13.159c-2.93,11.036 22.17,5.683 22.17,5.683c0,0 6.91,-10.638 6.96,-12.447c0.05,-1.804 -18.82,-19.02 -18.82,-19.02z"/>
  <path id="svg_127" fill="#FFAC95" d="m1293,101.86c0,0 -13.22,13.603 -12.06,10.022c0.64,-1.974 -0.47,-6.692 -1.6,-10.533c-0.93,-3.1383 -1.86,-5.6916 -1.86,-5.6916c0,0 2.54,-2.5852 5.2,-4.7914c2.82,-2.3387 5.77,-4.2479 5.96,-2.1834c0.38,4.015 4.36,13.1774 4.36,13.1774z"/>
  <path id="svg_128" fill="#003f7f" d="m1258.77,129.232l-14.89,32.095l55.36,25.713l14.9,-32.095l-55.37,-25.713z"/>
  <path id="svg_129" fill="white" d="m1260.56,134.128l-11.79,25.408l48.68,22.608l11.79,-25.408l-48.68,-22.608z"/>
  <path id="svg_130" fill="#003f7f" d="m1253.76,162.317l19.97,-14.037l2.16,24.314l-22.13,-10.277z"/>
  <path id="svg_131" fill="#003f7f" d="m1274.87,172.165l15.44,-10.857l1.67,18.809l-17.11,-7.952z"/>
  <path id="svg_132" fill="#003f7f" d="m1286.88,154.125c0.91,-1.788 0.19,-3.974 -1.6,-4.881c-1.78,-0.907 -3.97,-0.193 -4.88,1.596c-0.9,1.788 -0.19,3.974 1.6,4.881c1.79,0.907 3.97,0.193 4.88,-1.596z"/>
  <path id="svg_133" fill="#FFAC95" d="m1275.79,166.959c0,0 -2.57,0.365 -4.39,0.831c-1.82,0.466 -5.41,0.21 -5.82,1.042c-0.42,0.831 4.03,1.562 5.11,1.662c1.08,0.101 -1.68,1.626 -3.24,2.06c-1.56,0.434 -2.81,1.06 -1.2,2.517c1.62,1.457 4.11,3.641 5.15,3.796c1.04,0.155 6.14,-3.695 8.95,-6.555c2.8,-2.859 -4.56,-5.353 -4.56,-5.353z"/>
  <path id="svg_134" fill="#FFAB40" d="m1293.26,106.711c-4.96,3.8 -3.02,13.557 -0.52,19.874c2.5,6.317 9.6,17.9 9.07,18.951c-0.52,1.055 -26.85,21.039 -26.85,21.039l5.41,6.796c0,0 24.99,-12.57 31.18,-17.042c6.18,-4.476 6.71,-9.345 4.87,-15.662c-1.84,-6.317 -12.5,-42.1137 -23.16,-33.956z"/>
  <path id="svg_135" fill="#4A4E73" d="m1257.2,283.04l-1.23,-0.215c0.39,-2.274 9.75,-55.716 11.4,-60.745c1.64,-5.001 14.51,-37.541 15.06,-38.921l1.16,0.462c-0.13,0.338 -13.41,33.882 -15.03,38.852c-1.62,4.938 -11.26,60.01 -11.36,60.567z"/>
  <path id="svg_136" fill="#4A4E73" d="m1339.62,272.014c-0.19,-0.247 -19.7,-24.707 -29.92,-37.354c-10.31,-12.762 -14.12,-30.681 -14.16,-30.859l1.22,-0.256c0.04,0.178 3.8,17.805 13.92,30.324c10.22,12.648 29.72,37.113 29.92,37.359l-0.98,0.786z"/>
  <g id="svg_137" opacity="0.52">
   <path id="svg_138" fill="#1B5175" d="m1371.14,132.244c-0.42,0.553 -0.92,0.968 -1.46,1.265c4.39,-5.225 1.17,-12.15 -10.09,-12.008c-11.26,0.137 -14.32,-9.597 -7.64,-25.725c6.67,-16.1284 -10.15,-17.3845 -17.24,-13.7669c-7.09,3.6176 -14.32,0.2786 -14.04,-7.5458c0.19,-5.2345 -1.36,-7.9933 -2.41,-9.2494c2.29,2.4802 3.18,5.947 4.63,8.6008c2.37,4.3438 6.32,4.047 12.44,2.1742c6.11,-1.8773 18.44,-1.0094 21.11,9.2175c2.66,10.227 -4.44,22.1716 8.29,25.1356c12.73,2.946 10.36,16.768 6.41,21.902z" opacity="0.52"/>
  </g>
  <path id="svg_139" fill="#E9928B" d="m1286.42,90.2637c0,0 -1.98,7.2626 -7.08,11.0853c-0.93,-3.1376 -1.86,-5.6909 -1.86,-5.6909c0,0 2.54,-2.5853 5.2,-4.7915l3.74,-0.6029z"/>
  <path id="svg_140" fill="#FFAC95" d="m1277.87,71.4439c0,0 -3.55,8.8156 -6.91,10.5285c-3.35,1.7128 -1.12,2.1056 0,4.0149c1.12,1.9092 -3.16,7.8289 0.53,10.5284c3.68,2.6995 12.23,-1.7129 14.93,-6.2531c0,0 4.67,0.1964 5.79,-3.3572c1.12,-3.5536 -2.5,-5.7918 -4.6,-4.2114c-2.11,1.5804 -2.37,-1.7129 -3.29,-6.6459c-0.92,-4.9331 -6,-5.6547 -6.45,-4.6042z"/>
  <path id="svg_141" fill="#4f77aa" d="m1196.71,149.581l-146.79,2.503l-2.92,-2.503l0,-48.253l149.71,0l2.92,2.503l-2.92,45.75z"/>
  <path id="svg_142" fill="#4f77aa" d="m1196.71,96.8436l-146.79,2.5031l-2.92,-2.5031l0,-10.8436l149.71,0l2.92,2.5031l-2.92,8.3405z"/>
  <path id="svg_143" fill="#aac9dd" d="m1199.63,103.831l-149.71,0l0,48.253l149.71,0l0,-48.253z"/>
  <path id="svg_144" fill="#aac9dd" d="m1199.63,88.5029l-149.71,0l0,10.8482l149.71,0l0,-10.8482z"/>
  <path id="svg_145" fill="#4f77aa" d="m1078.57,95.9526c1.12,0 2.03,-0.908 2.03,-2.0281c0,-1.12 -0.91,-2.028 -2.03,-2.028c-1.12,0 -2.02,0.908 -2.02,2.028c0,1.1201 0.9,2.0281 2.02,2.0281z"/>
  <path id="svg_146" fill="#EB908B" d="m1071.06,93.9245c0,1.1191 -0.91,2.0281 -2.03,2.0281c-1.12,0 -2.03,-0.909 -2.03,-2.0281c0,-1.119 0.91,-2.028 2.03,-2.028c1.12,0 2.03,0.909 2.03,2.028z"/>
  <path id="svg_147" fill="#FFAA3F" d="m1059.49,95.9526c1.12,0 2.03,-0.908 2.03,-2.0281c0,-1.12 -0.91,-2.028 -2.03,-2.028c-1.12,0 -2.03,0.908 -2.03,2.028c0,1.1201 0.91,2.0281 2.03,2.0281z"/>
  <path id="svg_148" fill="#4f77aa" d="m1169.53,106.184c-10.64,0 -19.27,8.632 -19.27,19.28c0,10.647 8.63,19.28 19.27,19.28c10.65,0 19.28,-8.633 19.28,-19.28c0,-10.648 -8.63,-19.28 -19.28,-19.28zm0,31.69c-6.85,0 -12.4,-5.559 -12.4,-12.41c0,-6.856 5.56,-12.411 12.4,-12.411c6.85,0 12.41,5.559 12.41,12.411c0,6.851 -5.55,12.41 -12.41,12.41z"/>
  <path id="svg_149" fill="#003f7f" d="m1187.74,113.492c-3.49,-3.49 -8.3,-5.641 -13.62,-5.641c-10.65,0 -19.27,8.632 -19.27,19.28c0,1.228 0.11,2.434 0.33,3.604c1.69,8.925 9.52,15.676 18.94,15.676c3.52,0 6.82,-0.941 9.66,-2.59c5.75,-3.339 9.61,-9.56 9.61,-16.69c0.01,-5.331 -2.15,-10.154 -5.65,-13.639zm-7.4,24.377c-1.83,1.064 -3.96,1.672 -6.22,1.672c-6.06,0 -11.11,-4.348 -12.19,-10.099c-0.14,-0.745 -0.22,-1.521 -0.22,-2.311c0,-6.856 5.56,-12.411 12.41,-12.411c3.42,0 6.52,1.384 8.77,3.627c2.24,2.247 3.63,5.358 3.63,8.784c0.01,4.59 -2.48,8.596 -6.18,10.738z"/>
  <path id="svg_150" fill="white" d="m1193.4,127.131c0,7.13 -3.87,13.356 -9.61,16.69l-3.45,-5.951c3.7,-2.143 6.19,-6.148 6.19,-10.739c0,-3.43 -1.39,-6.536 -3.64,-8.783l4.85,-4.856c3.5,3.485 5.66,8.309 5.66,13.639z"/>
  <path id="svg_151" fill="#FFC945" d="m1183.79,143.821c-2.84,1.649 -6.14,2.59 -9.67,2.59c-9.41,0 -17.25,-6.751 -18.93,-15.676l6.75,-1.293c1.08,5.751 6.13,10.099 12.19,10.099c2.26,0 4.39,-0.607 6.22,-1.671l3.44,5.951z"/>
  <path id="svg_152" fill="white" d="m1124.98,113.282l-67.1,0l0,3.134l67.1,0l0,-3.134z"/>
  <path id="svg_153" fill="white" d="m1124.98,126.213l-67.1,0l0,3.133l67.1,0l0,-3.133z"/>
  <path id="svg_154" fill="white" d="m1124.98,139.148l-67.1,0l0,3.134l67.1,0l0,-3.134z"/>
  <path id="svg_155" fill="#EDF6F5" d="m691.038,153.705l-85.038,0c0,0 5.849,-13.054 19.346,-7.651c0,0 4.95,-13.502 16.648,-11.926c11.698,1.576 13.949,9.724 13.949,9.724c0,0 12.598,-5.001 24.748,5.13c0,0 9.899,-1.128 10.347,4.723z"/>
  <path id="svg_156" fill="#EDF6F5" d="m1144.04,19.7049l-85.04,0c0,0 5.85,-13.05434 19.35,-7.6508c0,0 4.95,-13.50201 16.64,-11.92616c11.7,1.57584 13.95,9.72452 13.95,9.72452c0,0 12.6,-5.0016 24.75,5.12944c0,0 9.9,-1.1281 10.35,4.723z"/>
  <path id="svg_157" fill="#EDF6F5" d="m169.038,99.7049l-85.038,0c0,0 5.8491,-13.0543 19.346,-7.6508c0,0 4.95,-13.502 16.648,-11.9262c11.698,1.5759 13.949,9.7246 13.949,9.7246c0,0 12.598,-5.0016 24.748,5.1294c0,0 9.899,-1.1281 10.347,4.723z"/>
  <path id="svg_158" fill="#EDF6F5" d="m449.038,192.705l-85.038,0c0,0 5.849,-13.054 19.346,-7.651c0,0 4.95,-13.502 16.648,-11.926c11.698,1.576 13.949,9.724 13.949,9.724c0,0 12.598,-5.001 24.748,5.13c0,0 9.899,-1.128 10.347,4.723z"/>
  <path id="svg_159" fill="#7bae8d" d="m753.374,242.5543l0,-20.53c0,-6.4 -5.186,-11.588 -11.584,-11.588l-14.645,0l0,97.642l18.773,0l7.456,0l23.165,0l0,-42.351c0,-6.4 -5.187,-11.589 -11.585,-11.589c-6.393,0.005 -11.58,-5.184 -11.58,-11.584z"/>
  <path id="svg_160" fill="#E9928B" d="m879.25,283.906l-9.345,9.13l-3.144,-4.677l-5.016,-7.463l12.017,-5.586l3.28,5.14l2.208,3.456z"/>
  <path id="svg_161" fill="#DE6667" d="m877.042,280.45c-4.819,2.458 -8.519,6.019 -10.281,7.909l-5.016,-7.463l12.017,-5.586l3.28,5.14z"/>
  <path id="svg_162" fill="#e3eaf2" d="m906.823,10l-198.391,0l0,103.482l198.391,0l0,-103.482z"/>
  <path id="svg_163" fill="#DCECEB" d="m751.271,19.2959l-31.954,0l0,29.4807l31.954,0l0,-29.4807z"/>
  <path id="svg_164" fill="#5882ad" d="m887.126,45.9849l-1.198,0l0,-1.798l-1.798,0l0,-1.1986l2.996,0l0,2.9966z"/>
  <path id="svg_165" fill="#5882ad" d="m879.228,44.1869l-4.903,0l0,-1.1986l4.903,0l0,1.1986zm-9.8,0l-4.903,0l0,-1.1986l4.903,0l0,1.1986zm-9.805,0l-4.902,0l0,-1.1986l4.902,0l0,1.1986zm-9.8,0l-4.902,0l0,-1.1986l4.902,0l0,1.1986zm-9.805,0l-4.902,0l0,-1.1986l4.902,0l0,1.1986zm-9.8,0l-4.902,0l0,-1.1986l4.902,0l0,1.1986zm-9.8,0l-4.902,0l0,-1.1986l4.902,0l0,1.1986zm-9.804,0l-4.903,0l0,-1.1986l4.903,0l0,1.1986zm-9.801,0l-4.902,0l0,-1.1986l4.902,0l0,1.1986z"/>
  <path id="svg_166" fill="#5882ad" d="m789.212,45.9849l-1.198,0l0,-2.9966l2.996,0l0,1.1986l-1.798,0l0,1.798z"/>
  <path id="svg_167" fill="#5882ad" d="m789.212,94.9496l-1.198,0l0,-4.8952l1.198,0l0,4.8952zm0,-9.7905l-1.198,0l0,-4.8996l1.198,0l0,4.8996zm0,-9.7948l-1.198,0l0,-4.8952l1.198,0l0,4.8952zm0,-9.7948l-1.198,0l0,-4.8953l1.198,0l0,4.8953zm0,-9.7905l-1.198,0l0,-4.8952l1.198,0l0,4.8952z"/>
  <path id="svg_168" fill="#B6D5D0" d="m791.009,102.842l-2.995,0l0,-2.9924l1.198,0l0,1.7934l1.797,0l0,1.199z"/>
  <path id="svg_169" fill="#5882ad" d="m879.228,102.842l-4.903,0l0,-1.198l4.903,0l0,1.198zm-9.8,0l-4.903,0l0,-1.198l4.903,0l0,1.198zm-9.805,0l-4.902,0l0,-1.198l4.902,0l0,1.198zm-9.8,0l-4.902,0l0,-1.198l4.902,0l0,1.198zm-9.805,0l-4.902,0l0,-1.198l4.902,0l0,1.198zm-9.8,0l-4.902,0l0,-1.198l4.902,0l0,1.198zm-9.8,0l-4.902,0l0,-1.198l4.902,0l0,1.198zm-9.804,0l-4.903,0l0,-1.198l4.903,0l0,1.198zm-9.801,0l-4.902,0l0,-1.198l4.902,0l0,1.198z"/>
  <path id="svg_170" fill="#B6D5D0" d="m887.126,102.842l-2.996,0l0,-1.199l1.798,0l0,-1.7934l1.198,0l0,2.9924z"/>
  <path id="svg_171" fill="#5882ad" d="m887.126,94.9496l-1.199,0l0,-4.8952l1.199,0l0,4.8952zm0,-9.7905l-1.199,0l0,-4.8996l1.199,0l0,4.8996zm0,-9.7948l-1.199,0l0,-4.8952l1.199,0l0,4.8952zm0,-9.7948l-1.199,0l0,-4.8953l1.199,0l0,4.8953zm0,-9.7905l-1.199,0l0,-4.8952l1.199,0l0,4.8952z"/>
  <path id="svg_172" fill="#5882ad" d="m794.626,119.073l-104.487,0c-1.64,0 -2.969,-1.33 -2.969,-2.97l0,-51.328c0,-1.6405 1.329,-2.9703 2.969,-2.9703l104.487,0c1.64,0 2.969,1.3298 2.969,2.9703l0,51.332c-0.004,1.636 -1.329,2.966 -2.969,2.966z"/>
  <path id="svg_173" fill="#003f7f" d="m798.221,122.668l-104.487,0c-1.64,0 -2.969,-1.329 -2.969,-2.97l0,-51.3321c0,-1.6405 1.329,-2.9704 2.969,-2.9704l104.487,0c1.64,0 2.969,1.3299 2.969,2.9704l0,51.3321c-0.004,1.641 -1.329,2.97 -2.969,2.97z"/>
  <path id="svg_174" fill="white" d="m698.649,118.474l93.86,0c0,0 -3.127,-21.9083 -8.055,-28.5665c-4.924,-6.6582 -9.053,2.5286 -14.51,13.4525c-5.458,10.919 -16.775,15.849 -25.028,4.925c-8.256,-10.9187 -11.982,-14.3835 -21.17,-8.5214c-9.188,5.8624 -16.377,0.9314 -19.438,-6.6582c-3.061,-7.59 -5.659,-7.4588 -5.659,-7.4588l0,32.8274z" opacity="0.67"/>
  <path id="svg_175" fill="white" d="m698.649,118.473c0,0 4.325,0.201 7.788,-4.593c3.464,-4.795 4.395,-12.118 8.121,-14.3842c3.726,-2.2661 7.19,0 12.381,9.4882c5.19,9.489 13.311,5.027 16.775,-4.427c3.463,-9.4534 5.06,-13.9855 10.784,-14.5148c5.724,-0.5338 9.319,6.527 11.318,13.3168c1.998,6.793 7.189,9.055 12.38,6.26c5.191,-2.796 14.313,8.858 14.313,8.858l-93.86,0l0,-0.004z" opacity="0.28"/>
  <path id="svg_176" fill="white" d="m700.446,73.6604c-0.992,0 -1.797,-0.8049 -1.797,-1.7979c0,-0.9931 0.805,-1.798 1.797,-1.798c0.993,0 1.798,0.8049 1.798,1.798c0,0.993 -0.805,1.7979 -1.798,1.7979z"/>
  <path id="svg_177" fill="white" d="m744.383,70.7949l-37.678,0l0,2.1306l37.678,0l0,-2.1306z"/>
  <path id="svg_178" fill="white" d="m700.446,80.1516c-0.992,0 -1.797,-0.8049 -1.797,-1.798c0,-0.993 0.805,-1.7979 1.797,-1.7979c0.993,0 1.798,0.8049 1.798,1.7979c0,0.9931 -0.805,1.798 -1.798,1.798z"/>
  <path id="svg_179" fill="white" d="m735.729,77.2861l-29.024,0l0,2.1305l29.024,0l0,-2.1305z"/>
  <path id="svg_180" fill="white" d="m755.014,22.3184l-31.954,0l0,29.4806l31.954,0l0,-29.4806z"/>
  <path id="svg_181" fill="#FFAB40" d="m751.271,35.3643l-11.619,5.2583l-11.615,-5.2583l0,7.8568l23.234,0l0,-7.8568z"/>
  <path id="svg_182" fill="#9e8970" d="m751.272,31.8164l-23.234,0l0,2.0999l11.615,5.1402l11.619,-5.1402l0,-2.0999z"/>
  <path id="svg_183" fill="white" d="m851.424,41.2304l-64.272,0l0,-3.0009l64.272,0l0,3.0009zm-63.869,-0.4025l63.471,0l0,-2.2047l-63.471,0l0,2.2047z"/>
  <path id="svg_184" fill="white" d="m851.424,28.8409l-64.272,0l0,-3.0011l64.272,0l0,3.0011zm-63.869,-0.3981l63.471,0l0,-2.2048l-63.471,0l0,2.2048z"/>
  <path id="svg_185" fill="white" d="m851.425,16.4571l-64.272,0l0,-3.001l64.272,0l0,3.001zm-63.87,-0.3982l63.472,0l0,-2.2048l-63.472,0l0,2.2048z"/>
  <path id="svg_186" fill="#E9928B" d="m910.618,283.118l-10.272,9.585l-2.563,-11.488l-0.992,-4.445l12.275,-3.106l0.708,4.327l0.844,5.127z"/>
  <path id="svg_187" fill="#DE6667" d="m909.775,277.99c0,0 -2.646,-0.276 -5.077,0.319c-1.785,0.438 -6.919,2.905 -6.919,2.905l-0.992,-4.449l12.275,-3.106l0.713,4.331z"/>
  <path id="svg_188" fill="#0C1B3C" d="m907.955,282.067c-5.2,-0.078 -7.063,4.187 -8.812,8.15c-1.749,3.964 -3.866,13.207 -6.896,14.144c-3.031,0.931 -4.662,2.563 -4.662,4.431l10.933,0c0,0 6.861,-7.546 10.39,-10.49c3.529,-2.944 4.387,-4.856 4.387,-4.856c0,0 -1.356,-7.293 -2.677,-10.32c0,-0.009 -0.931,-1.032 -2.663,-1.059z"/>
  <path id="svg_189" fill="#408C91" d="m908.817,289.671c-3.792,0.787 -5.187,4.856 -7.518,11.619c-2.33,6.759 -6.953,7.498 -6.953,7.498l12.914,0c0,0 0.722,-2.485 2.257,-5.63c1.137,-2.332 3.096,-4.991 3.59,-7.424c1.163,-5.713 -3.367,-6.256 -4.29,-6.063z"/>
  <path id="svg_190" fill="#376F92" d="m909.739,274.688c-8.108,0.896 -13.797,3.596 -13.797,3.596c0,0 -2.759,0.896 -6.752,-7.507c-3.993,-8.413 -18.035,-34.744 -18.035,-34.744l16.146,0.512l12.205,0.389c0,0 6.59,16.681 9.787,23.772c3.197,7.087 0.446,13.982 0.446,13.982z"/>
  <path id="svg_191" fill="#1B5175" d="m895.946,263.331c-4.893,5.862 -3.253,12.682 0,14.953c0,0 -2.759,0.896 -6.752,-7.507c-3.992,-8.413 -18.034,-34.744 -18.034,-34.744l16.145,0.512l10.539,4.681c0,0 -10.381,1.33 -12.712,6.794c-2.331,5.459 15.704,9.453 10.814,15.311z"/>
  <g id="svg_192" opacity="0.4">
   <path id="svg_193" fill="#F4D7C9" d="m852.089,245.412l-1.802,-1.002c-1.141,-0.634 -1.845,-1.841 -1.824,-3.145c0.005,-0.149 0.009,-0.293 0.009,-0.442c0,-0.148 -0.004,-0.293 -0.009,-0.442c-0.021,-1.303 0.683,-2.511 1.824,-3.145l1.802,-1.002c1.425,-0.792 2.125,-2.45 1.71,-4.024c-0.009,-0.018 -0.009,-0.035 -0.018,-0.053c-0.42,-1.57 -1.863,-2.655 -3.485,-2.629l-2.064,0.035c-1.321,0.022 -2.528,-0.7 -3.175,-1.851c-0.131,-0.227 -0.263,-0.454 -0.389,-0.678c-0.683,-1.133 -0.705,-2.546 -0.022,-3.683l1.058,-1.759c0.84,-1.4 0.617,-3.189 -0.534,-4.339c-0.013,-0.013 -0.03,-0.031 -0.043,-0.044c-1.15,-1.151 -2.939,-1.374 -4.338,-0.534l-1.758,1.059c-1.137,0.682 -2.55,0.656 -3.683,-0.022c-0.223,-0.131 -0.45,-0.262 -0.677,-0.389c-1.151,-0.643 -1.876,-1.851 -1.85,-3.176l0.035,-2.065c0.026,-1.628 -1.059,-3.067 -2.628,-3.487c-0.018,-0.008 -0.035,-0.008 -0.053,-0.017c-1.574,-0.416 -3.232,0.284 -4.023,1.71l-1.002,1.803c-0.634,1.141 -1.841,1.846 -3.144,1.824c-0.149,-0.005 -0.293,-0.009 -0.442,-0.009c-0.148,0 -0.293,0.004 -0.441,0.009c-1.303,0.022 -2.51,-0.683 -3.145,-1.824l-1.001,-1.803c-0.792,-1.426 -2.449,-2.126 -4.023,-1.71c-0.018,0.009 -0.035,0.009 -0.053,0.017c-1.57,0.42 -2.654,1.864 -2.628,3.487l0.035,2.065c0.022,1.321 -0.7,2.528 -1.85,3.176c-0.227,0.131 -0.455,0.262 -0.678,0.389c-1.132,0.682 -2.545,0.704 -3.682,0.022l-1.758,-1.059c-1.399,-0.835 -3.188,-0.617 -4.338,0.534c-0.013,0.013 -0.031,0.031 -0.044,0.044c-1.15,1.15 -1.373,2.939 -0.533,4.339l1.058,1.759c0.682,1.137 0.656,2.55 -0.022,3.683c-0.131,0.224 -0.262,0.451 -0.389,0.678c-0.643,1.151 -1.85,1.877 -3.175,1.851l-2.064,-0.035c-1.627,-0.026 -3.066,1.059 -3.485,2.629c-0.009,0.018 -0.009,0.035 -0.018,0.053c-0.415,1.574 0.284,3.232 1.71,4.024l1.802,1.002c1.141,0.634 1.845,1.842 1.823,3.145c-0.004,0.149 -0.008,0.294 -0.008,0.442c0,0.149 0.004,0.293 0.008,0.442c0.022,1.304 -0.682,2.511 -1.823,3.145l-1.802,1.002c-1.426,0.792 -2.125,2.45 -1.71,4.025c0.009,0.017 0.009,0.035 0.018,0.052c0.419,1.571 1.863,2.656 3.485,2.63l2.064,-0.035c1.321,-0.022 2.528,0.7 3.175,1.85c0.131,0.228 0.262,0.455 0.389,0.678c0.682,1.133 0.704,2.546 0.022,3.684l-1.058,1.758c-0.835,1.4 -0.617,3.189 0.533,4.34c0.013,0.013 0.031,0.03 0.044,0.044c1.15,1.15 2.939,1.373 4.338,0.533l1.758,-1.058c1.137,-0.683 2.55,-0.657 3.682,0.022c0.223,0.131 0.451,0.262 0.678,0.389c1.15,0.643 1.876,1.85 1.85,3.176l-0.035,2.065c-0.026,1.627 1.058,3.066 2.628,3.486c0.018,0.009 0.035,0.009 0.053,0.018c1.574,0.415 3.231,-0.285 4.023,-1.711l1.001,-1.802c0.635,-1.142 1.842,-1.846 3.145,-1.824c0.148,0.004 0.293,0.008 0.441,0.008c0.149,0 0.293,-0.004 0.442,-0.008c1.303,-0.022 2.51,0.682 3.144,1.824l1.002,1.802c0.791,1.426 2.449,2.126 4.023,1.711c0.018,-0.009 0.035,-0.009 0.053,-0.018c1.569,-0.42 2.654,-1.863 2.628,-3.486l-0.035,-2.065c-0.022,-1.321 0.699,-2.529 1.85,-3.176c0.227,-0.131 0.454,-0.263 0.677,-0.389c1.133,-0.683 2.546,-0.705 3.683,-0.022l1.758,1.058c1.399,0.836 3.188,0.617 4.338,-0.533c0.013,-0.014 0.03,-0.031 0.043,-0.044c1.151,-1.151 1.374,-2.94 0.534,-4.34l-1.058,-1.758c-0.683,-1.138 -0.656,-2.551 0.022,-3.684c0.131,-0.223 0.262,-0.45 0.389,-0.678c0.643,-1.15 1.85,-1.877 3.175,-1.85l2.064,0.035c1.627,0.026 3.065,-1.059 3.485,-2.63c0.009,-0.017 0.009,-0.035 0.018,-0.052c0.415,-1.575 -0.285,-3.237 -1.71,-4.025zm-30.533,15.434c-11.056,0 -20.02,-8.964 -20.02,-20.027c0,-11.059 8.96,-20.027 20.02,-20.027c11.055,0 20.02,8.963 20.02,20.027c-0.005,11.063 -8.965,20.027 -20.02,20.027z" opacity="0.4"/>
   <path id="svg_194" fill="#F4D7C9" d="m830.294,243.348c1.318,-4.815 -1.515,-9.787 -6.327,-11.105c-4.813,-1.319 -9.783,1.515 -11.101,6.329c-1.319,4.814 1.514,9.786 6.327,11.105c4.812,1.319 9.782,-1.515 11.101,-6.329z" opacity="0.4"/>
  </g>
  <g id="svg_195" opacity="0.4">
   <path id="svg_196" fill="#F4D7C9" d="m1022.81,247.462l-1.05,-0.587c-0.66,-0.371 -1.08,-1.076 -1.07,-1.837c0,-0.087 0.01,-0.171 0.01,-0.258c0,-0.087 0,-0.171 -0.01,-0.258c-0.01,-0.761 0.4,-1.466 1.07,-1.837l1.05,-0.587c0.83,-0.463 1.24,-1.43 1,-2.349c-0.01,-0.009 -0.01,-0.022 -0.01,-0.03c-0.25,-0.919 -1.09,-1.553 -2.04,-1.536l-1.2,0.018c-0.77,0.013 -1.48,-0.412 -1.86,-1.081c-0.07,-0.131 -0.15,-0.267 -0.22,-0.394c-0.4,-0.66 -0.42,-1.487 -0.02,-2.152l0.62,-1.028c0.49,-0.818 0.36,-1.859 -0.31,-2.533c-0.01,-0.009 -0.02,-0.017 -0.03,-0.026c-0.67,-0.674 -1.71,-0.801 -2.53,-0.311l-1.03,0.617c-0.66,0.398 -1.48,0.385 -2.15,-0.013c-0.13,-0.075 -0.26,-0.153 -0.39,-0.228c-0.68,-0.376 -1.1,-1.08 -1.08,-1.854l0.02,-1.208c0.01,-0.949 -0.62,-1.789 -1.54,-2.034c-0.01,-0.004 -0.02,-0.004 -0.03,-0.009c-0.92,-0.245 -1.89,0.166 -2.35,0.998l-0.58,1.049c-0.38,0.665 -1.08,1.077 -1.84,1.068c-0.09,0 -0.17,-0.004 -0.26,-0.004c-0.09,0 -0.17,0 -0.26,0.004c-0.76,0.013 -1.46,-0.398 -1.83,-1.068l-0.59,-1.049c-0.46,-0.832 -1.43,-1.243 -2.349,-0.998c-0.008,0.005 -0.022,0.005 -0.03,0.009c-0.919,0.245 -1.548,1.085 -1.535,2.034l0.017,1.208c0.013,0.769 -0.411,1.478 -1.08,1.854c-0.131,0.075 -0.267,0.153 -0.394,0.228c-0.66,0.398 -1.486,0.411 -2.151,0.013l-1.028,-0.617c-0.818,-0.49 -1.858,-0.359 -2.532,0.311c-0.009,0.009 -0.017,0.017 -0.026,0.026c-0.674,0.674 -0.8,1.715 -0.311,2.533l0.617,1.028c0.398,0.665 0.385,1.487 -0.013,2.152c-0.074,0.132 -0.153,0.263 -0.227,0.394c-0.377,0.674 -1.081,1.094 -1.855,1.081l-1.207,-0.018c-0.949,-0.017 -1.788,0.617 -2.033,1.536c-0.004,0.008 -0.004,0.021 -0.009,0.03c-0.245,0.919 0.166,1.89 0.997,2.349l1.05,0.587c0.664,0.371 1.076,1.076 1.067,1.837c0,0.087 -0.005,0.171 -0.005,0.258c0,0.087 0,0.171 0.005,0.258c0.013,0.761 -0.398,1.466 -1.067,1.837l-1.05,0.587c-0.831,0.463 -1.242,1.43 -0.997,2.349c0.005,0.009 0.005,0.022 0.009,0.031c0.245,0.918 1.084,1.548 2.033,1.535l1.207,-0.018c0.77,-0.013 1.478,0.412 1.855,1.081c0.074,0.131 0.153,0.267 0.227,0.394c0.398,0.66 0.411,1.487 0.013,2.152l-0.617,1.028c-0.489,0.818 -0.358,1.859 0.311,2.533c0.009,0.009 0.017,0.018 0.026,0.026c0.674,0.674 1.714,0.801 2.532,0.311l1.028,-0.617c0.665,-0.398 1.487,-0.385 2.151,0.013c0.132,0.075 0.263,0.153 0.394,0.228c0.674,0.376 1.093,1.08 1.08,1.855l-0.017,1.207c-0.018,0.949 0.616,1.789 1.535,2.034c0.008,0.005 0.022,0.004 0.03,0.009c0.919,0.245 1.889,-0.166 2.349,-0.998l0.59,-1.049c0.37,-0.665 1.07,-1.077 1.83,-1.068c0.09,0 0.17,0.005 0.26,0.005c0.09,0 0.17,0 0.26,-0.005c0.76,-0.013 1.46,0.398 1.84,1.068l0.58,1.049c0.46,0.832 1.43,1.243 2.35,0.998c0.01,-0.005 0.02,-0.004 0.03,-0.009c0.92,-0.245 1.55,-1.085 1.54,-2.034l-0.02,-1.207c-0.02,-0.77 0.41,-1.479 1.08,-1.855c0.13,-0.075 0.26,-0.153 0.39,-0.228c0.66,-0.398 1.49,-0.411 2.15,-0.013l1.03,0.617c0.82,0.49 1.86,0.359 2.53,-0.311c0.01,-0.008 0.02,-0.017 0.03,-0.026c0.67,-0.674 0.8,-1.715 0.31,-2.533l-0.62,-1.028c-0.4,-0.665 -0.38,-1.487 0.02,-2.152c0.07,-0.131 0.15,-0.263 0.22,-0.394c0.38,-0.674 1.08,-1.094 1.86,-1.081l1.2,0.018c0.95,0.018 1.79,-0.617 2.04,-1.535c0,-0.009 0,-0.022 0.01,-0.031c0.24,-0.919 -0.17,-1.89 -1,-2.349zm-17.83,9.007c-6.45,0 -11.68,-5.232 -11.68,-11.689c0,-6.457 5.23,-11.689 11.68,-11.689c6.46,0 11.69,5.232 11.69,11.689c0,6.457 -5.23,11.689 -11.69,11.689z" opacity="0.4"/>
  </g>
  <path id="svg_197" fill="#B6D5D0" d="m916.517,188.131l0,-6.278l-5.65,-1.461l-4.329,-5.162l1.128,-3.088l-34.486,-39.42l-144.059,0c-1.413,0 -2.559,1.146 -2.559,2.559l0,4.458l0.035,0.026c0.088,0.717 0.381,1.439 0.914,2.073l38.217,45.567c2.777,3.307 6.875,5.223 11.195,5.223l135.597,0c2.218,0 3.774,-1.68 3.997,-3.578c0.035,-0.298 0.035,-0.608 0,-0.919z"/>
  <path id="svg_198" fill="white" d="m912.525,186.355l-135.601,0c-4.321,0 -8.419,-1.912 -11.196,-5.223l-38.221,-45.562c-2.191,-2.612 -0.336,-6.597 3.075,-6.597l135.601,0c4.321,0 8.418,1.911 11.195,5.223l38.221,45.562c2.191,2.612 0.333,6.597 -3.074,6.597z"/>
  <path id="svg_199" fill="#B2E5E0" d="m895.632,176.333c-0.267,0 -0.516,-0.118 -0.687,-0.32l-26.352,-31.318c-0.494,-0.586 -0.079,-1.478 0.686,-1.478c0.267,0 0.516,0.118 0.687,0.319l26.352,31.318c0.494,0.582 0.079,1.479 -0.686,1.479z"/>
  <path id="svg_200" fill="#DCECEB" d="m792.57,163.275l-30.489,0c-0.717,0 -1.399,-0.32 -1.859,-0.871l-14.951,-17.945c-0.508,-0.608 -0.075,-1.526 0.713,-1.526l30.489,0c0.717,0 1.399,0.319 1.859,0.87l14.951,17.945c0.508,0.608 0.075,1.527 -0.713,1.527z"/>
  <path id="svg_201" fill="#B2E5E0" d="m777.768,176.639l-4.496,0c-0.717,0 -1.395,-0.315 -1.854,-0.866l-5.528,-6.602c-0.507,-0.608 -0.078,-1.526 0.713,-1.526l4.496,0c0.717,0 1.395,0.314 1.854,0.866l5.527,6.601c0.508,0.604 0.079,1.527 -0.712,1.527z"/>
  <path id="svg_202" fill="#B2E5E0" d="m790.765,176.639l-4.496,0c-0.717,0 -1.395,-0.315 -1.854,-0.866l-5.528,-6.602c-0.507,-0.608 -0.078,-1.526 0.713,-1.526l4.496,0c0.717,0 1.395,0.314 1.854,0.866l5.528,6.601c0.507,0.604 0.078,1.527 -0.713,1.527z"/>
  <path id="svg_203" fill="#B2E5E0" d="m803.761,176.639l-4.495,0c-0.717,0 -1.395,-0.315 -1.854,-0.866l-5.528,-6.602c-0.507,-0.608 -0.079,-1.526 0.713,-1.526l4.495,0c0.717,0 1.395,0.314 1.854,0.866l5.528,6.601c0.507,0.604 0.079,1.527 -0.713,1.527z"/>
  <path id="svg_204" fill="#DCECEB" d="m827.919,151.477l-34.443,0c-0.713,0 -1.391,-0.315 -1.85,-0.862l-5.156,-6.146c-0.507,-0.608 -0.078,-1.531 0.713,-1.531l34.443,0c0.713,0 1.39,0.314 1.85,0.861l5.156,6.147c0.507,0.608 0.078,1.531 -0.713,1.531z"/>
  <path id="svg_205" fill="#DCECEB" d="m838.462,164.044l-34.443,0c-0.713,0 -1.391,-0.315 -1.85,-0.862l-5.156,-6.146c-0.507,-0.604 -0.078,-1.531 0.713,-1.531l34.443,0c0.713,0 1.39,0.315 1.85,0.862l5.156,6.146c0.507,0.608 0.074,1.531 -0.713,1.531z"/>
  <path id="svg_206" fill="#DCECEB" d="m849.027,176.639l-34.443,0c-0.712,0 -1.39,-0.315 -1.849,-0.862l-5.156,-6.146c-0.508,-0.604 -0.079,-1.531 0.713,-1.531l34.442,0c0.713,0 1.391,0.315 1.85,0.861l5.156,6.147c0.507,0.608 0.079,1.531 -0.713,1.531z"/>
  <path id="svg_207" fill="#B2E5E0" d="m864.207,176.333c-0.267,0 -0.516,-0.118 -0.687,-0.32l-26.352,-31.318c-0.494,-0.586 -0.079,-1.478 0.686,-1.478c0.267,0 0.516,0.118 0.687,0.319l26.352,31.318c0.495,0.582 0.079,1.479 -0.686,1.479z"/>
  <path id="svg_208" fill="#B2E5E0" d="m844.733,149.968l-3.752,0c-0.542,0 -1.347,-0.438 -1.802,-0.98l-1.364,-1.623c-0.455,-0.543 -0.385,-0.98 0.157,-0.98l3.752,0c0.542,0 1.347,0.437 1.802,0.98l1.364,1.623c0.455,0.542 0.385,0.98 -0.157,0.98z"/>
  <path id="svg_209" fill="#DCECEB" d="m844.991,149.097l-3.752,0c-0.543,0 -1.347,-0.438 -1.802,-0.98l-1.364,-1.623c-0.455,-0.543 -0.385,-0.98 0.157,-0.98l3.752,0c0.542,0 1.347,0.437 1.802,0.98l1.364,1.623c0.455,0.542 0.381,0.98 -0.157,0.98z"/>
  <path id="svg_210" fill="#B2E5E0" d="m882.884,158.099l-3.752,0c-0.543,0 -1.347,-0.437 -1.802,-0.98l-1.364,-1.622c-0.455,-0.543 -0.385,-0.98 0.157,-0.98l3.752,0c0.542,0 1.347,0.437 1.802,0.98l1.364,1.622c0.451,0.543 0.381,0.98 -0.157,0.98z"/>
  <path id="svg_211" fill="#DCECEB" d="m883.137,157.233l-3.752,0c-0.542,0 -1.347,-0.437 -1.802,-0.98l-1.364,-1.623c-0.455,-0.542 -0.385,-0.98 0.157,-0.98l3.753,0c0.542,0 1.346,0.438 1.801,0.98l1.365,1.623c0.455,0.538 0.385,0.98 -0.158,0.98z"/>
  <path id="svg_212" fill="#B2E5E0" d="m880.059,176.333c-0.267,0 -0.516,-0.118 -0.687,-0.32l-26.352,-31.318c-0.494,-0.586 -0.079,-1.478 0.687,-1.478c0.266,0 0.516,0.118 0.686,0.319l26.352,31.318c0.495,0.582 0.079,1.479 -0.686,1.479z"/>
  <path id="svg_213" fill="#B2E5E0" d="m876.307,168.714l-3.752,0c-0.543,0 -1.347,-0.438 -1.802,-0.98l-1.365,-1.623c-0.454,-0.543 -0.384,-0.98 0.158,-0.98l3.752,0c0.542,0 1.347,0.437 1.802,0.98l1.364,1.623c0.455,0.538 0.385,0.98 -0.157,0.98z"/>
  <path id="svg_214" fill="#DCECEB" d="m876.565,167.843l-3.753,0c-0.542,0 -1.347,-0.438 -1.801,-0.98l-1.365,-1.623c-0.455,-0.543 -0.385,-0.98 0.158,-0.98l3.752,0c0.542,0 1.347,0.437 1.802,0.98l1.364,1.623c0.455,0.542 0.385,0.98 -0.157,0.98z"/>
  <path id="svg_215" fill="#376F92" d="m920.908,216.073c0,0 -2.173,6.737 -9.922,12.651c-3.748,2.866 -8.799,5.539 -15.543,7.166c-20.676,5 -37.232,3.193 -38.43,3.39c-1.067,0.175 9.244,16.48 15.047,26.266c0.722,1.216 1.374,2.327 1.925,3.298c0.07,0.118 0.131,0.236 0.196,0.35c4.728,8.5 2.2,10.635 2.2,10.635c-4.793,0.599 -11.383,5.993 -11.383,5.993c-9.984,2.599 -15.975,-12.984 -21.568,-19.576c-5.593,-6.593 -19.972,-26.17 -13.579,-36.756c6.389,-10.587 63.209,-24.175 63.209,-24.175l5.663,2.188l10.684,4.125l11.501,4.445z"/>
  <path id="svg_216" fill="#1B5175" d="m873.989,268.852c0.07,0.118 0.131,0.236 0.197,0.35c-0.079,-0.097 -0.145,-0.215 -0.197,-0.35z"/>
  <path id="svg_217" fill="#1B5175" d="m914.917,223.247c-0.03,0.074 -1.526,2.192 -3.931,5.481c-3.748,2.866 -8.799,5.539 -15.542,7.166c-20.676,5 -37.233,3.194 -38.431,3.39c-1.067,0.175 9.245,16.48 15.048,26.266c-3.481,-4.191 -8.983,-4.742 -13.098,-13.124c-4.994,-10.171 -16.775,0.385 -18.926,-8.006c-2.152,-8.39 6.148,-7.791 18.327,-13.185c12.184,-5.394 14.178,-3.198 25.224,-5.398c11.051,-2.201 9.315,-15.758 9.315,-15.758l5.816,-2.568l8.095,-1.045c0,0 1.15,2.283 2.589,5.171c2.414,4.838 5.619,11.356 5.514,11.61z"/>
  <path id="svg_218" fill="#0C1B3C" d="m879.246,283.9c0,0 5.75,4.804 5.881,8.452c0.132,3.649 -12.104,16.011 -12.104,16.011l-15.521,0c0,0 -1.661,-2.546 2.633,-4.374c4.294,-1.825 4.723,-1.934 6.337,-3.653c1.609,-1.719 3.008,-6.339 5.584,-11.173c2.576,-4.834 7.19,-5.263 7.19,-5.263z"/>
  <path id="svg_219" fill="#E9928B" d="m884.94,95.6683c0,0 -3.635,-2.2354 -4.846,-4.7509c-1.211,-2.5154 -4.286,-8.0143 -4.469,-9.3179c-0.184,-1.3037 2.422,0.0918 3.914,2.7035c0,0 -1.024,-2.7954 -2.887,-6.4307c-1.862,-3.6354 -4.845,-5.8709 -4.097,-7.6426c0.743,-1.7717 6.149,4.939 6.8,6.0589c0.652,1.1199 1.955,-0.0919 3.634,0.7437c1.675,0.8399 1.675,-0.0919 3.354,0.9318c1.675,1.0237 3.118,3.106 4.868,12.2709l-6.271,5.4333z"/>
  <path id="svg_220" fill="#E9928B" d="m842.118,165.457c0,0 -1.968,-0.678 -5.296,-3.88c-3.324,-3.202 -5.296,-4.37 -6.402,-4.864c-1.107,-0.495 -2.895,-1.046 -4.741,-0.923c-1.845,0.122 -2.834,-0.74 -2.401,-1.357c0.433,-0.616 2.156,-1.045 2.156,-1.045c0,0 -3.385,0.306 -2.523,-1.234c0.861,-1.54 5.724,-0.923 5.724,-0.923c0,0 0.923,-1.168 2.218,-1.168c1.294,0 1.167,-1.045 3.756,-0.739c2.585,0.306 3.94,1.846 6.647,2.463c2.707,0.617 4.946,6.251 4.946,6.251l-4.084,7.419z"/>
  <path id="svg_221" fill="#93405E" d="m846.19,157.412c0,0 -4.352,3.845 -5.681,7.909l-0.468,1.199l2.528,3.531l5.86,-11.186l-2.239,-1.453z"/>
  <path id="svg_222" fill="#93405E" d="m884.476,99.1459l-2.095,-3.2942c0,0 4.093,-4.7946 9.385,-6.1945l1.303,2.2967l-8.593,7.192z"/>
  <path id="svg_223" fill="#67A4C3" d="m947.208,141.682l-15.922,8.451l-2.366,1.256c0,0 -0.844,-0.424 -2.226,-1.146c-4.513,-2.371 -14.764,-7.953 -19.954,-12.437c-2.414,-2.083 -6.416,-7.079 -10.575,-12.656c-7.534,-10.101 -15.585,-22.101 -15.585,-22.101c5.79,-8.9899 12.485,-11.9865 12.485,-11.9865c0,0 18.035,25.3735 20.829,27.7705c1.636,1.404 12.743,8.977 21.691,15.027c6.358,4.296 11.623,7.822 11.623,7.822z"/>
  <path id="svg_224" fill="#4F91B3" d="m947.208,141.681l-15.922,8.452c-1.413,0.031 -2.974,0.07 -4.588,0.109c-4.513,-2.371 -14.763,-7.953 -19.954,-12.437c-2.414,-2.082 -6.416,-7.078 -10.575,-12.656c3.307,1.724 6.569,3.238 8.467,4.874c4.128,3.574 2.93,-0.801 21.306,1.728c3.629,0.498 6.839,1.238 9.651,2.1c6.35,4.304 11.615,7.83 11.615,7.83z"/>
  <path id="svg_225" fill="#E9928B" d="m934.5,139.134c0,0 -13.78,8.457 -13.81,3.133c-0.009,-1.785 -0.333,-3.329 -0.757,-4.585c-0.839,-2.493 -2.077,-3.876 -2.077,-3.876c0,0 -0.004,0.005 -0.009,0.013c-4.92,5.245 -7.115,3.583 -7.714,2.586c-0.599,-0.998 -4.662,-9.388 -4.063,-12.188c0.6,-2.796 0.468,-4.462 -0.398,-6.195c-0.861,-1.728 0.398,-5.923 0.398,-5.923l11.72,-2.467c0,0 10.85,11.055 11.782,14.782c0.931,3.731 4.928,14.72 4.928,14.72z"/>
  <path id="svg_226" fill="#67A4C3" d="m950.077,175.362c-3.594,10.788 -23.147,46.813 -33.38,47.841c-4.172,0.42 -9.555,-2.305 -14.462,-5.683c-7.128,-4.904 -13.263,-11.177 -13.263,-11.177c8.987,-6.374 7.788,-26.471 7.788,-26.471c0,0 0,0.005 -0.004,0.009c-0.197,0.162 -12.844,10.67 -21.323,11.658c-8.55,0.998 -36.188,-18.181 -36.188,-18.181c0,0 6.192,-15.582 9.188,-14.983c2.996,0.6 22.766,13.387 26.151,13.583c3.385,0.202 22.574,-16.982 27.35,-21.777c4.78,-4.794 23.58,-12.187 36.76,-12.384c0,0 8.589,1.4 11.584,7.791c2.992,6.4 3.394,18.986 -0.201,29.774z"/>
  <path id="svg_227" fill="#0C1B3C" d="m911.79,100.239c-6.258,0.753 -12.201,5.39 -10.281,10.04c1.92,4.646 5.668,5.206 8.069,5.236c2.4,0.031 3.196,1.457 4.036,2.756c0.84,1.3 1.211,0.495 2.265,-1.609c1.054,-2.109 3.468,-0.6 3.529,2.239c0.062,2.84 -0.433,9.721 4.645,9.843c5.077,0.123 6.07,-1.981 6.258,-1.981c0.188,0 4.333,-8.487 4.027,-15.924c0,0 5.265,-2.725 4.273,-7.065c-0.993,-4.3354 -6.691,-5.206 -10.098,-1.706c0,0 -2.851,0.153 -5.514,-1.641c-2.664,-1.7977 -6.258,-2.6639 -7.929,-1.6096c-1.67,1.0499 -1.732,1.2336 -3.28,1.4216z"/>
  <path id="svg_228" fill="#e8e6d7" d="m916.256,243.094l-5.349,0l0,60.79l5.349,0l0,-60.79z"/>
  <path id="svg_229" fill="#b4ac9e" d="m916.255,303.883l-2.676,0l0,-60.79l2.676,-0.166l0,60.956z"/>
  <path id="svg_230" fill="#b4ac9e" d="m934.749,308.38l-42.34,0c0,-1.242 0.503,-2.362 1.316,-3.176c0.813,-0.813 1.937,-1.316 3.179,-1.316l33.35,0c2.484,-0.005 4.495,2.008 4.495,4.492z"/>
  <path id="svg_231" fill="#e8e6d7" d="m921.241,308.38l-28.828,0c0,-1.242 0.503,-2.362 1.316,-3.176c0.814,-0.813 1.938,-1.316 3.18,-1.316l16.674,0l7.658,4.492z"/>
  <path id="svg_232" fill="#b4ac9e" d="m966.122,179.311c-0.381,0.175 -0.752,0.364 -1.115,0.565c-0.118,0.065 -0.236,0.131 -0.35,0.197c-0.118,0.065 -0.232,0.131 -0.346,0.201c-0.113,0.065 -0.227,0.135 -0.341,0.21c-0.105,0.065 -0.21,0.131 -0.31,0.197c-0.123,0.078 -0.241,0.157 -0.354,0.24c-0.11,0.075 -0.219,0.149 -0.328,0.228c-0.11,0.079 -0.219,0.157 -0.324,0.236c-0.359,0.267 -0.713,0.547 -1.058,0.836c-0.127,0.105 -0.25,0.21 -0.372,0.319c-0.437,0.385 -0.861,0.787 -1.268,1.207l-0.013,0.013c-0.167,0.171 -0.333,0.346 -0.499,0.525c-0.022,0.027 -0.048,0.057 -0.074,0.084c-0.162,0.175 -0.319,0.354 -0.477,0.538c-0.175,0.201 -0.341,0.402 -0.507,0.608c-0.009,0.013 -0.022,0.026 -0.031,0.039c-0.157,0.193 -0.31,0.389 -0.459,0.586c-0.162,0.206 -0.319,0.416 -0.472,0.63c-0.009,0.013 -0.018,0.022 -0.026,0.035c-0.154,0.21 -0.302,0.42 -0.447,0.635c-0.157,0.223 -0.306,0.446 -0.454,0.673c0,0 0,0.005 -0.005,0.005c-0.131,0.201 -0.258,0.402 -0.384,0.608c-0.035,0.057 -0.07,0.113 -0.105,0.17c-0.031,0.048 -0.066,0.101 -0.097,0.153c-0.236,0.385 -0.463,0.775 -0.686,1.173c-0.271,0.481 -0.538,0.975 -0.787,1.474c-0.132,0.249 -0.258,0.503 -0.381,0.757c-0.127,0.254 -0.249,0.507 -0.367,0.765c-0.241,0.517 -0.477,1.037 -0.704,1.567c-0.114,0.262 -0.228,0.529 -0.337,0.796c-0.114,0.267 -0.223,0.538 -0.328,0.805c-0.096,0.232 -0.184,0.463 -0.276,0.7c-0.118,0.31 -0.236,0.621 -0.354,0.936c-0.105,0.275 -0.201,0.547 -0.301,0.827c-0.014,0.03 -0.022,0.065 -0.035,0.096c-0.088,0.245 -0.175,0.49 -0.259,0.735c-0.196,0.568 -0.393,1.142 -0.581,1.719c-0.088,0.267 -0.175,0.538 -0.258,0.805c-0.088,0.284 -0.175,0.564 -0.267,0.849c-0.166,0.538 -0.328,1.071 -0.485,1.61c-0.009,0.03 -0.018,0.065 -0.027,0.096c-0.087,0.284 -0.166,0.573 -0.249,0.857c-0.004,0.005 -0.004,0.009 -0.004,0.013c-0.079,0.28 -0.162,0.565 -0.241,0.845c-0.105,0.363 -0.201,0.726 -0.301,1.089c-0.057,0.206 -0.114,0.416 -0.167,0.621c-0.03,0.114 -0.061,0.232 -0.096,0.346c-0.201,0.739 -0.393,1.478 -0.586,2.213c-0.188,0.718 -0.372,1.431 -0.555,2.135c-0.079,0.302 -0.158,0.599 -0.232,0.901c-0.241,0.941 -0.481,1.873 -0.717,2.787c-0.074,0.267 -0.14,0.538 -0.21,0.805c-0.127,0.485 -0.258,0.967 -0.385,1.439c-0.079,0.293 -0.157,0.591 -0.24,0.879c-0.289,1.046 -0.578,2.061 -0.879,3.045c-0.066,0.223 -0.136,0.446 -0.202,0.665c-0.048,0.158 -0.1,0.311 -0.148,0.468c-0.04,0.131 -0.083,0.267 -0.127,0.394c-0.14,0.429 -0.28,0.853 -0.429,1.264c-0.153,0.446 -0.31,0.88 -0.472,1.304c-0.009,0.022 -0.017,0.044 -0.022,0.065c-0.074,0.193 -0.149,0.377 -0.223,0.565c-0.065,0.162 -0.131,0.323 -0.197,0.481c-0.017,0.039 -0.035,0.087 -0.052,0.127c-0.074,0.184 -0.158,0.363 -0.236,0.547c-0.005,0.013 -0.013,0.03 -0.022,0.043c-0.088,0.193 -0.175,0.385 -0.263,0.574c-0.087,0.188 -0.174,0.371 -0.266,0.551c-0.066,0.135 -0.132,0.267 -0.201,0.398c-0.031,0.061 -0.062,0.122 -0.097,0.179c-0.087,0.158 -0.17,0.311 -0.258,0.464c-0.039,0.074 -0.083,0.144 -0.122,0.214c-0.053,0.092 -0.109,0.184 -0.166,0.276c-7.509,12.223 -28.858,11.781 -28.858,11.781l-31.36,0c-7.36,0 -7.509,-7.512 0.883,-8.102c8.392,-0.591 24.735,-10.311 32.095,-31.664c3.568,-10.35 7.722,-16.514 11.059,-20.119c2.834,-3.066 6.848,-4.772 11.02,-4.772l29.978,0c0.499,0 0.643,0.669 0.197,0.874z"/>
  <path id="svg_233" fill="#e8e6d7" d="m965.007,179.875c-0.118,0.066 -0.236,0.131 -0.35,0.197c-0.118,0.066 -0.232,0.131 -0.345,0.201c-0.114,0.066 -0.228,0.136 -0.342,0.21c-0.105,0.066 -0.205,0.131 -0.31,0.197c-0.123,0.079 -0.241,0.157 -0.354,0.241c-0.114,0.074 -0.223,0.148 -0.328,0.227c-0.11,0.079 -0.219,0.158 -0.324,0.236c-0.358,0.267 -0.713,0.547 -1.058,0.836c-0.127,0.105 -0.249,0.21 -0.372,0.319c-0.437,0.385 -0.861,0.788 -1.268,1.208l-0.013,0.013c-0.166,0.17 -0.333,0.345 -0.499,0.525c-0.022,0.026 -0.048,0.057 -0.074,0.083c-0.162,0.175 -0.319,0.354 -0.477,0.538c-0.175,0.201 -0.341,0.402 -0.507,0.608c-0.009,0.013 -0.022,0.026 -0.031,0.039c-0.153,0.193 -0.31,0.39 -0.459,0.587c-0.157,0.21 -0.319,0.419 -0.472,0.629c-0.009,0.014 -0.018,0.022 -0.026,0.035c-0.149,0.21 -0.302,0.42 -0.446,0.635c-0.153,0.223 -0.302,0.446 -0.455,0.673c0,0 0,0.005 -0.005,0.005c-0.126,0.201 -0.258,0.402 -0.384,0.608c-0.035,0.057 -0.07,0.114 -0.105,0.171c-0.031,0.048 -0.062,0.1 -0.092,0.153l-0.005,0c-0.236,0.385 -0.463,0.774 -0.686,1.172c-0.271,0.481 -0.538,0.976 -0.787,1.474c-0.132,0.25 -0.258,0.499 -0.381,0.757c-0.122,0.254 -0.249,0.508 -0.367,0.766c-0.241,0.516 -0.477,1.036 -0.704,1.566c-0.114,0.262 -0.228,0.529 -0.337,0.796c-0.114,0.267 -0.223,0.538 -0.328,0.805c-0.096,0.232 -0.184,0.464 -0.275,0.7c-0.118,0.31 -0.237,0.621 -0.355,0.936c-0.1,0.276 -0.201,0.547 -0.301,0.827c-0.014,0.03 -0.022,0.066 -0.035,0.096c-0.088,0.245 -0.175,0.49 -0.258,0.735c-0.197,0.569 -0.394,1.142 -0.582,1.719c-0.087,0.267 -0.171,0.538 -0.258,0.805c-0.087,0.285 -0.175,0.565 -0.267,0.849c-0.166,0.538 -0.328,1.076 -0.485,1.61c-0.009,0.03 -0.018,0.065 -0.026,0.096c-0.084,0.284 -0.167,0.573 -0.25,0.857c-0.004,0.005 -0.004,0.009 -0.004,0.014c-0.079,0.28 -0.158,0.56 -0.241,0.844c-0.105,0.363 -0.201,0.726 -0.301,1.089c-0.057,0.21 -0.114,0.416 -0.166,0.621c-0.031,0.114 -0.062,0.232 -0.097,0.346c-0.197,0.739 -0.393,1.479 -0.586,2.214c-0.188,0.717 -0.371,1.43 -0.555,2.134c-0.079,0.302 -0.153,0.604 -0.232,0.902c-0.24,0.94 -0.481,1.872 -0.717,2.786c-0.07,0.271 -0.14,0.538 -0.21,0.805c-0.127,0.486 -0.258,0.967 -0.385,1.439c-0.079,0.293 -0.157,0.591 -0.24,0.88c-0.289,1.045 -0.578,2.06 -0.879,3.044c-0.066,0.224 -0.136,0.447 -0.201,0.665c-0.049,0.158 -0.101,0.311 -0.149,0.468c-0.04,0.132 -0.083,0.267 -0.127,0.394c-0.14,0.429 -0.28,0.853 -0.429,1.264c-0.153,0.447 -0.31,0.88 -0.472,1.304c-0.009,0.022 -0.017,0.044 -0.022,0.066c-0.074,0.192 -0.148,0.376 -0.223,0.564c-0.065,0.162 -0.131,0.324 -0.197,0.481c-0.017,0.04 -0.035,0.088 -0.052,0.127c-0.074,0.184 -0.157,0.363 -0.236,0.547c-0.005,0.013 -0.013,0.031 -0.022,0.044c-0.088,0.192 -0.175,0.385 -0.262,0.573c-0.088,0.188 -0.175,0.372 -0.267,0.551c-0.066,0.136 -0.131,0.267 -0.201,0.398c-0.031,0.061 -0.062,0.123 -0.097,0.179c-0.087,0.158 -0.17,0.311 -0.258,0.464c-0.096,0.166 -0.192,0.328 -0.288,0.49c-7.509,12.223 -28.858,11.781 -28.858,11.781l-29.375,0c-2.094,-1.636 -1.075,-4.134 4.496,-4.528c8.392,-0.59 26.523,-12.441 33.887,-33.798c3.569,-10.351 7.723,-16.515 11.06,-20.119c2.834,-3.067 6.844,-4.773 11.02,-4.773l21.669,0l0,0z"/>
  <path id="svg_234" fill="#b4ac9e" d="m955.902,189.054c-0.236,0.385 -0.464,0.774 -0.687,1.172c-0.271,0.481 -0.538,0.976 -0.787,1.474c-0.131,0.25 -0.258,0.499 -0.381,0.757c-0.122,0.254 -0.249,0.508 -0.367,0.766c-0.24,0.516 -0.477,1.037 -0.704,1.566c-0.114,0.262 -0.227,0.529 -0.337,0.796c-0.113,0.267 -0.223,0.538 -0.328,0.805c-0.096,0.232 -0.183,0.464 -0.275,0.7c-0.118,0.311 -0.236,0.621 -0.354,0.936c-0.101,0.276 -0.202,0.547 -0.302,0.827c-0.013,0.031 -0.022,0.066 -0.035,0.096c-0.088,0.245 -0.175,0.49 -0.258,0.735c-0.197,0.569 -0.394,1.142 -0.582,1.719c-0.087,0.267 -0.17,0.538 -0.258,0.805c-0.087,0.285 -0.175,0.565 -0.266,0.849c-0.167,0.538 -0.328,1.076 -0.486,1.61c-0.009,0.03 -0.017,0.065 -0.026,0.096c-0.083,0.284 -0.166,0.573 -0.249,0.858c-0.005,0.004 -0.005,0.008 -0.005,0.013c-0.078,0.28 -0.157,0.56 -0.24,0.844c-0.105,0.363 -0.201,0.726 -0.302,1.089c-0.057,0.21 -0.114,0.416 -0.166,0.621c-0.031,0.114 -0.061,0.232 -0.096,0.346c-0.197,0.739 -0.394,1.479 -0.586,2.214c-0.188,0.717 -0.372,1.43 -0.556,2.134c-0.079,0.302 -0.153,0.604 -0.232,0.902c-0.24,0.94 -0.481,1.872 -0.717,2.786c-0.07,0.272 -0.14,0.538 -0.21,0.805c-0.127,0.486 -0.258,0.967 -0.385,1.439c-0.078,0.294 -0.157,0.591 -0.24,0.88c-0.289,1.045 -0.577,2.06 -0.879,3.045c-0.066,0.223 -0.136,0.446 -0.201,0.664c-0.048,0.158 -0.101,0.311 -0.149,0.469c-0.039,0.131 -0.083,0.266 -0.127,0.393c-0.14,0.429 -0.28,0.853 -0.428,1.265c-0.153,0.446 -0.311,0.879 -0.473,1.303c-0.008,0.022 -0.017,0.044 -0.021,0.066c-0.075,0.192 -0.149,0.376 -0.223,0.564c-0.066,0.162 -0.132,0.324 -0.197,0.481c-0.018,0.04 -0.035,0.088 -0.053,0.127c-0.074,0.184 -0.157,0.363 -0.236,0.547c-0.004,0.013 -0.013,0.031 -0.022,0.044c-0.087,0.192 -0.175,0.385 -0.262,0.573c-0.088,0.188 -0.175,0.372 -0.267,0.551c-0.065,0.136 -0.131,0.267 -0.201,0.398c-0.031,0.061 -0.061,0.123 -0.096,0.18c-0.088,0.157 -0.171,0.31 -0.258,0.463c-0.04,0.075 -0.083,0.145 -0.123,0.215c-0.052,0.092 -0.109,0.183 -0.166,0.275c-7.509,12.223 -28.858,11.781 -28.858,11.781l-10.321,0c1.085,-0.065 21.136,-1.028 28.286,-31.012c4.836,-20.25 17.956,-21.453 25.692,-23.032z"/>
  <path id="svg_235" fill="#DCECEB" d="m740.1277,242.8l0,-20.53c0,-6.4 -5.187,-11.588 -11.584,-11.588l-14.646,0l0,97.642l18.774,0l7.456,0l23.164,0l0,-42.351c0,-6.4 -5.186,-11.589 -11.584,-11.589c-6.394,0.005 -11.58,-5.184 -11.58,-11.584z"/>
  <path id="svg_236" fill="#F2D6C8" d="m736.669,283.529c-4.47,-8.531 -9.857,-14.616 -18.621,-21.502c-8.759,-6.885 -20.239,-6.916 -24.922,-9.134c-4.688,-2.222 -4.807,3.928 -3.35,9.703c1.456,5.775 -2.965,32.364 23.658,40.815c26.619,8.457 26.536,-13.587 23.235,-19.882z"/>
  <path id="svg_237" fill="#F5B89B" d="m719.854,289.264c-0.197,0 -0.367,-0.145 -0.394,-0.346c-1.276,-9.414 3.39,-18.715 3.438,-18.807c0.1,-0.196 0.341,-0.275 0.538,-0.175c0.196,0.101 0.275,0.342 0.175,0.538c-0.049,0.092 -4.597,9.178 -3.359,18.335c0.031,0.218 -0.122,0.42 -0.341,0.45c-0.022,0.005 -0.039,0.005 -0.057,0.005z"/>
  <path id="svg_238" fill="#F5B89B" d="m719.924,290.318c-0.061,0 -0.126,-0.013 -0.183,-0.044c-7.933,-4.169 -21.721,-2.677 -21.861,-2.66c-0.219,0.022 -0.416,-0.131 -0.442,-0.354c-0.026,-0.219 0.131,-0.416 0.354,-0.442c0.577,-0.065 14.173,-1.535 22.321,2.747c0.196,0.101 0.271,0.346 0.166,0.539c-0.075,0.135 -0.21,0.214 -0.355,0.214z"/>
  <path id="svg_239" fill="#F5B89B" d="m722.413,297.974c-0.18,0 -0.346,-0.122 -0.39,-0.306c-5.715,-23.619 -28.372,-40.308 -28.6,-40.474c-0.179,-0.132 -0.218,-0.381 -0.087,-0.56c0.131,-0.18 0.38,-0.219 0.56,-0.088c0.231,0.167 23.12,17.031 28.906,40.934c0.052,0.214 -0.079,0.429 -0.293,0.481c-0.031,0.009 -0.066,0.013 -0.096,0.013z"/>
  <path id="svg_240" fill="#F5B89B" d="m711.712,275.82c-0.088,0 -0.175,-0.03 -0.249,-0.087c-5.174,-4.143 -17.677,-3.062 -17.799,-3.049c-0.223,0.026 -0.416,-0.145 -0.433,-0.363c-0.022,-0.219 0.14,-0.416 0.363,-0.434c0.525,-0.048 12.944,-1.119 18.371,3.22c0.171,0.14 0.202,0.39 0.062,0.56c-0.079,0.101 -0.197,0.153 -0.315,0.153z"/>
  <path id="svg_241" fill="#F5B89B" d="m707.562,270.557c-0.157,0 -0.302,-0.092 -0.367,-0.245c-1.623,-3.858 -0.766,-10.381 -0.731,-10.656c0.031,-0.219 0.223,-0.372 0.451,-0.342c0.218,0.031 0.371,0.232 0.341,0.451c-0.009,0.066 -0.862,6.584 0.673,10.237c0.088,0.201 -0.008,0.437 -0.214,0.525c-0.048,0.017 -0.101,0.03 -0.153,0.03z"/>
  <path id="svg_242" fill="#ADCCC7" d="m667.054,308.207c-0.761,-7.98 6.463,-19.992 29.654,-12.179c0,0 5.86,-18.313 21.97,-17.705c16.111,0.613 21.236,15.684 21.236,15.684c0,0 21.643,-2.616 24.734,15.696c0,0 -96.497,10.031 -97.594,-1.496z"/>
  <path id="svg_243" fill="#6EAB9C" d="m715.154,309.58l-0.788,-0.127c2.091,-12.971 -5.947,-22.28 -6.03,-22.372l0.599,-0.529c0.083,0.1 8.366,9.69 6.219,23.028z"/>
  <path id="svg_244" fill="#6EAB9C" d="m715.42,301.635l-0.612,-0.516c0.074,-0.087 7.421,-8.876 8.672,-14.392l0.778,0.175c-1.294,5.708 -8.532,14.37 -8.838,14.733z"/>
  <path id="svg_245" fill="#6EAB9C" d="m715.079,306.25c-5.737,-0.31 -10.823,-6.229 -11.033,-6.483l0.608,-0.516c0.048,0.061 5.077,5.91 10.469,6.203l-0.044,0.796z"/>
  <path id="svg_246" fill="#6EAB9C" d="m733.183,310.005l-0.52,-0.604c0.416,-0.358 10.22,-8.784 15.319,-8.928l0.022,0.8c-4.819,0.131 -14.724,8.644 -14.821,8.732z"/>
  <path id="svg_247" fill="#6EAB9C" d="m752.36,308.355c-0.079,-0.004 -7.894,-0.481 -14.217,-2.113l0.201,-0.774c6.249,1.614 13.989,2.082 14.064,2.091l-0.048,0.796z"/>
  <path id="svg_248" fill="#6EAB9C" d="m694.119,309.524c-5.165,-4.296 -16.054,-7.726 -16.163,-7.761l0.236,-0.761c0.455,0.14 11.151,3.513 16.438,7.909l-0.511,0.613z"/>
  <path id="svg_249" fill="#6EAB9C" d="m690.1,306.203l-0.801,-0.022c0.127,-4.357 -1.771,-7.783 -1.788,-7.818l0.695,-0.393c0.088,0.148 2.029,3.644 1.894,8.233z"/>
  <path id="svg_250" fill="#408C91" d="m876.565,308.364l-7.587,0c0,0 6.118,-3.067 8.12,-9.353c1.444,-4.532 3.805,-8.881 6.739,-7.804c2.935,1.076 0.516,6.067 -1.04,8.88c-2.226,4.012 -6.232,8.277 -6.232,8.277z"/>
  <path id="svg_251" fill="#3FB8A9" d="m729.23,210.683l-1.198,0l0,-48.529c0,-4.125 3.354,-7.48 7.478,-7.48l4.946,0l0,1.198l-4.946,0c-3.463,0 -6.28,2.818 -6.28,6.282l0,48.529z"/>
  <path id="svg_252" fill="#3FB8A9" d="m734.067,211.185l-1.198,0l0,-48.528c0,-1.924 1.565,-3.486 3.485,-3.486l8.698,0l0,1.199l-8.698,0c-1.264,0 -2.287,1.028 -2.287,2.287l0,48.528z"/>
  <path id="svg_253" fill="#4F91B3" d="m901.934,216.071c0.179,0.486 0.275,0.971 0.301,1.448c-7.128,-4.904 -13.263,-11.177 -13.263,-11.177c8.986,-6.374 7.788,-26.471 7.788,-26.471c0,0 10.141,-8.859 11.541,-6.715c1.399,2.143 -3.595,14.427 0,19.471c3.59,5.044 -9.332,15.277 -6.367,23.444z"/>
  <path id="svg_254" fill="#DE6667" d="m919.933,137.682c-0.839,-2.494 -2.077,-3.876 -2.077,-3.876c0,0 1.819,-2.253 2.082,-5.057c0,0 2.422,5.595 -0.005,8.933z"/>
  <path id="svg_255" fill="white" d="m819.211,74.558c4.224,-3.6614 4.68,-10.0545 1.02,-14.2794c-3.66,-4.2249 -10.051,-4.6818 -14.274,-1.0204c-4.224,3.6614 -4.68,10.0545 -1.02,14.2794c3.66,4.2249 10.051,4.6818 14.274,1.0204z"/>
  <path id="svg_256" fill="white" d="m877.611,57.0352l-44.943,0l0,2.9047l44.943,0l0,-2.9047z"/>
  <path id="svg_257" fill="white" d="m877.61,65.6182l-44.943,0l0,2.9047l44.943,0l0,-2.9047z"/>
  <path id="svg_258" fill="white" d="m857.537,74.1221l-24.87,0l0,2.9048l24.87,0l0,-2.9048z"/>
  <path id="svg_259" fill="#7bae8d" d="m733.905,238.482c0,1.05 -0.853,1.903 -1.902,1.903c-1.05,0 -1.902,-0.853 -1.902,-1.903c0,-1.05 0.852,-1.903 1.902,-1.903c1.054,0 1.902,0.853 1.902,1.903z"/>
  <path id="svg_260" fill="#7bae8d" d="m732.007,231.435c1.051,0 1.903,-0.852 1.903,-1.903c0,-1.051 -0.852,-1.903 -1.903,-1.903c-1.05,0 -1.902,0.852 -1.902,1.903c0,1.051 0.852,1.903 1.902,1.903z"/>
  <path id="svg_261" fill="#7bae8d" d="m732.007,222.485c1.051,0 1.903,-0.852 1.903,-1.903c0,-1.051 -0.852,-1.903 -1.903,-1.903c-1.05,0 -1.902,0.852 -1.902,1.903c0,1.051 0.852,1.903 1.902,1.903z"/>
  <path id="svg_262" fill="#93405E" d="m919.938,141.335c0,0 0.275,-1.654 1.749,-2.673c1.473,-1.02 10.924,-5.171 13.486,-0.652l-15.235,3.325z"/>
 </g>
</svg>