<svg width="325" height="206" xmlns="http://www.w3.org/2000/svg" fill="none">

 <g>
  <title>Layer 1</title>
  <g id="svg_1" opacity="0.4">
   <path id="svg_2" fill="#F4D7C9" d="m292.331,158.527l-1.262,-0.702c-0.798,-0.446 -1.292,-1.288 -1.279,-2.205c0.003,-0.102 0.003,-0.205 0.003,-0.308c0,-0.102 -0.003,-0.205 -0.003,-0.307c-0.013,-0.913 0.478,-1.759 1.279,-2.205l1.262,-0.702c0.997,-0.554 1.487,-1.714 1.196,-2.817c-0.003,-0.012 -0.007,-0.025 -0.013,-0.038c-0.295,-1.099 -1.304,-1.859 -2.442,-1.843l-1.445,0.023c-0.926,0.016 -1.772,-0.49 -2.221,-1.298c-0.09,-0.16 -0.183,-0.317 -0.272,-0.474c-0.478,-0.795 -0.494,-1.782 -0.016,-2.58l0.74,-1.231c0.586,-0.98 0.433,-2.23 -0.375,-3.037c-0.01,-0.01 -0.022,-0.023 -0.029,-0.029c-0.807,-0.808 -2.057,-0.962 -3.038,-0.375l-1.23,0.74c-0.798,0.478 -1.785,0.462 -2.58,-0.016c-0.157,-0.09 -0.314,-0.183 -0.474,-0.272c-0.808,-0.452 -1.314,-1.298 -1.298,-2.221l0.022,-1.445c0.02,-1.138 -0.74,-2.147 -1.842,-2.442c-0.013,-0.003 -0.026,-0.007 -0.039,-0.013c-1.102,-0.292 -2.265,0.199 -2.817,1.195l-0.701,1.263c-0.446,0.798 -1.289,1.291 -2.205,1.278c-0.103,-0.003 -0.205,-0.003 -0.308,-0.003c-0.102,0 -0.205,0.003 -0.307,0.003c-0.914,0.013 -1.76,-0.477 -2.205,-1.278l-0.702,-1.263c-0.554,-0.996 -1.714,-1.487 -2.817,-1.195c-0.013,0.003 -0.025,0.006 -0.038,0.013c-1.099,0.295 -1.859,1.304 -1.843,2.442l0.023,1.445c0.016,0.926 -0.491,1.772 -1.298,2.221c-0.16,0.089 -0.317,0.182 -0.474,0.272c-0.795,0.478 -1.782,0.494 -2.58,0.016l-1.231,-0.74c-0.98,-0.587 -2.23,-0.433 -3.038,0.375c-0.009,0.009 -0.022,0.022 -0.028,0.029c-0.808,0.807 -0.962,2.057 -0.375,3.037l0.74,1.231c0.477,0.798 0.461,1.785 -0.016,2.58c-0.09,0.157 -0.183,0.314 -0.273,0.474c-0.451,0.808 -1.297,1.314 -2.22,1.298l-1.446,-0.023c-1.137,-0.019 -2.147,0.741 -2.441,1.843c-0.004,0.013 -0.007,0.026 -0.013,0.038c-0.292,1.103 0.198,2.266 1.195,2.817l1.263,0.702c0.798,0.446 1.291,1.288 1.278,2.205c-0.003,0.102 -0.003,0.205 -0.003,0.307c0,0.103 0.003,0.206 0.003,0.308c0.013,0.913 -0.477,1.759 -1.278,2.205l-1.263,0.702c-0.997,0.554 -1.487,1.714 -1.195,2.816c0.003,0.013 0.006,0.026 0.013,0.039c0.294,1.099 1.304,1.859 2.441,1.843l1.446,-0.023c0.926,-0.016 1.772,0.49 2.22,1.298c0.09,0.16 0.183,0.317 0.273,0.474c0.477,0.795 0.493,1.782 0.016,2.58l-0.74,1.23c-0.587,0.981 -0.433,2.231 0.375,3.038c0.009,0.01 0.022,0.023 0.028,0.029c0.808,0.808 2.058,0.962 3.038,0.375l1.231,-0.74c0.798,-0.478 1.785,-0.462 2.58,0.016c0.157,0.09 0.314,0.183 0.474,0.272c0.807,0.452 1.314,1.298 1.298,2.221l-0.023,1.445c-0.019,1.138 0.74,2.147 1.843,2.442c0.013,0.003 0.025,0.007 0.038,0.013c1.103,0.292 2.266,-0.199 2.817,-1.195l0.702,-1.263c0.445,-0.798 1.288,-1.291 2.205,-1.279c0.102,0.004 0.205,0.004 0.307,0.004c0.103,0 0.205,-0.004 0.308,-0.004c0.913,-0.012 1.759,0.478 2.205,1.279l0.701,1.263c0.555,0.996 1.715,1.487 2.817,1.195c0.013,-0.003 0.026,-0.006 0.039,-0.013c1.099,-0.295 1.858,-1.304 1.842,-2.442l-0.022,-1.445c-0.016,-0.926 0.49,-1.772 1.298,-2.221c0.16,-0.089 0.317,-0.182 0.474,-0.272c0.795,-0.478 1.782,-0.494 2.58,-0.016l1.23,0.74c0.981,0.587 2.231,0.433 3.038,-0.375c0.01,-0.009 0.023,-0.022 0.029,-0.029c0.808,-0.807 0.961,-2.057 0.375,-3.038l-0.74,-1.23c-0.478,-0.798 -0.462,-1.785 0.016,-2.58c0.089,-0.157 0.182,-0.314 0.272,-0.474c0.452,-0.808 1.298,-1.314 2.221,-1.298l1.445,0.023c1.138,0.019 2.147,-0.741 2.442,-1.843c0.003,-0.013 0.006,-0.026 0.013,-0.039c0.291,-1.102 -0.199,-2.262 -1.196,-2.816zm-21.384,10.805c-7.742,0 -14.019,-6.274 -14.019,-14.02c0,-7.742 6.274,-14.019 14.019,-14.019c7.743,0 14.02,6.274 14.02,14.019c0,7.746 -6.277,14.02 -14.02,14.02z" opacity="0.4"/>
   <path id="svg_3" fill="#F4D7C9" d="m270.947,161.76c3.496,0 6.329,-2.834 6.329,-6.329c0,-3.496 -2.833,-6.329 -6.329,-6.329c-3.495,0 -6.329,2.833 -6.329,6.329c0,3.495 2.834,6.329 6.329,6.329z" opacity="0.4"/>
  </g>
  <path id="svg_4" fill="#ADCCC7" d="m204.966,201.177c0,0 4.412,-12.95 18.391,-8.239c0,0 3.531,-11.037 13.241,-10.668c9.71,0.368 12.802,9.45 12.802,9.45c0,0 13.046,-1.577 14.911,9.457l-59.345,0z"/>
  <path id="svg_5" fill="#6EAB9C" d="m234.514,201.108l-0.551,-0.09c1.256,-7.787 -3.576,-13.392 -3.624,-13.449l0.42,-0.369c0.051,0.058 5.053,5.852 3.755,13.908z"/>
  <path id="svg_6" fill="#6EAB9C" d="m234.668,196.34l-0.43,-0.359c0.045,-0.055 4.467,-5.342 5.22,-8.656l0.545,0.125c-0.782,3.442 -5.149,8.669 -5.335,8.89z"/>
  <path id="svg_7" fill="#6EAB9C" d="m234.431,199.134c-3.474,-0.189 -6.55,-3.769 -6.678,-3.919l0.426,-0.362c0.029,0.035 3.051,3.547 6.284,3.723l-0.032,0.558z"/>
  <path id="svg_8" fill="#6EAB9C" d="m245.371,201.388l-0.365,-0.423c0.25,-0.218 6.172,-5.304 9.258,-5.387l0.016,0.561c-2.891,0.077 -8.851,5.198 -8.909,5.249z"/>
  <path id="svg_9" fill="#6EAB9C" d="m256.904,200.4c-0.048,-0.003 -4.762,-0.288 -8.579,-1.275l0.141,-0.542c3.766,0.971 8.425,1.256 8.47,1.256l-0.032,0.561z"/>
  <path id="svg_10" fill="#6EAB9C" d="m221.774,201.095c-3.105,-2.583 -9.665,-4.647 -9.729,-4.669l0.167,-0.535c0.272,0.086 6.729,2.118 9.921,4.771l-0.359,0.433z"/>
  <path id="svg_11" fill="#6EAB9C" d="m219.416,199.067l-0.561,-0.016c0.077,-2.615 -1.061,-4.669 -1.074,-4.688l0.487,-0.276c0.055,0.09 1.231,2.205 1.148,4.98z"/>
  <g id="svg_12" opacity="0.4">
   <path id="svg_13" fill="#F4D7C9" d="m195.02,148.946l-0.737,-0.41c-0.468,-0.26 -0.753,-0.753 -0.747,-1.285c0,-0.061 0.003,-0.119 0.003,-0.18c0,-0.06 0,-0.118 -0.003,-0.179c-0.01,-0.532 0.279,-1.025 0.747,-1.285l0.737,-0.41c0.583,-0.324 0.868,-1 0.698,-1.644c-0.003,-0.007 -0.003,-0.016 -0.006,-0.023c-0.173,-0.64 -0.763,-1.086 -1.426,-1.073l-0.843,0.013c-0.541,0.009 -1.035,-0.285 -1.298,-0.757c-0.054,-0.092 -0.106,-0.185 -0.16,-0.275c-0.279,-0.465 -0.288,-1.042 -0.01,-1.506l0.433,-0.718c0.343,-0.571 0.253,-1.301 -0.218,-1.772c-0.006,-0.007 -0.013,-0.013 -0.019,-0.019c-0.471,-0.472 -1.202,-0.561 -1.772,-0.218l-0.718,0.432c-0.465,0.279 -1.042,0.269 -1.506,-0.009c-0.093,-0.055 -0.183,-0.106 -0.276,-0.161c-0.471,-0.262 -0.766,-0.756 -0.756,-1.297l0.013,-0.843c0.009,-0.664 -0.433,-1.253 -1.074,-1.426c-0.006,-0.003 -0.016,-0.003 -0.022,-0.007c-0.644,-0.17 -1.321,0.116 -1.644,0.699l-0.41,0.737c-0.26,0.468 -0.753,0.753 -1.285,0.747c-0.061,0 -0.119,-0.004 -0.18,-0.004c-0.061,0 -0.118,0 -0.179,0.004c-0.532,0.009 -1.026,-0.279 -1.285,-0.747l-0.41,-0.737c-0.324,-0.583 -1,-0.869 -1.644,-0.699c-0.007,0.004 -0.016,0.004 -0.023,0.007c-0.641,0.173 -1.086,0.759 -1.073,1.426l0.012,0.843c0.01,0.541 -0.285,1.035 -0.756,1.297c-0.093,0.055 -0.186,0.106 -0.275,0.161c-0.465,0.278 -1.042,0.288 -1.507,0.009l-0.717,-0.432c-0.571,-0.343 -1.301,-0.254 -1.772,0.218c-0.007,0.006 -0.013,0.012 -0.02,0.019c-0.471,0.471 -0.561,1.201 -0.218,1.772l0.433,0.718c0.279,0.464 0.269,1.041 -0.01,1.506c-0.054,0.093 -0.105,0.183 -0.16,0.275c-0.263,0.472 -0.756,0.766 -1.298,0.757l-0.843,-0.013c-0.663,-0.01 -1.252,0.433 -1.426,1.073c-0.003,0.007 -0.003,0.016 -0.006,0.023c-0.17,0.644 0.115,1.32 0.699,1.644l0.737,0.41c0.468,0.26 0.753,0.753 0.746,1.285c0,0.061 -0.003,0.119 -0.003,0.179c0,0.061 0,0.119 0.003,0.18c0.01,0.532 -0.278,1.025 -0.746,1.285l-0.737,0.41c-0.584,0.324 -0.869,1 -0.699,1.644c0.003,0.006 0.003,0.016 0.006,0.022c0.174,0.641 0.76,1.087 1.426,1.074l0.843,-0.013c0.542,-0.009 1.035,0.285 1.298,0.756c0.055,0.093 0.106,0.186 0.16,0.276c0.279,0.465 0.289,1.042 0.01,1.506l-0.433,0.718c-0.343,0.57 -0.253,1.301 0.218,1.772c0.007,0.007 0.013,0.013 0.02,0.019c0.471,0.471 1.201,0.561 1.772,0.218l0.717,-0.432c0.465,-0.279 1.042,-0.27 1.507,0.009c0.093,0.055 0.182,0.106 0.275,0.161c0.471,0.262 0.766,0.756 0.756,1.297l-0.012,0.843c-0.01,0.664 0.432,1.253 1.073,1.426c0.007,0.003 0.016,0.003 0.023,0.007c0.644,0.169 1.32,-0.116 1.644,-0.699l0.41,-0.737c0.259,-0.468 0.753,-0.753 1.285,-0.747c0.061,0 0.118,0.003 0.179,0.003c0.061,0 0.119,0 0.18,-0.003c0.532,-0.009 1.025,0.279 1.285,0.747l0.41,0.737c0.323,0.583 1,0.868 1.644,0.699c0.006,-0.004 0.016,-0.004 0.022,-0.007c0.641,-0.173 1.087,-0.759 1.074,-1.426l-0.013,-0.843c-0.01,-0.541 0.285,-1.035 0.756,-1.297c0.093,-0.055 0.186,-0.106 0.276,-0.161c0.464,-0.279 1.041,-0.288 1.506,-0.009l0.718,0.432c0.57,0.343 1.301,0.253 1.772,-0.218c0.006,-0.006 0.013,-0.012 0.019,-0.019c0.471,-0.471 0.561,-1.202 0.218,-1.772l-0.433,-0.718c-0.278,-0.464 -0.269,-1.041 0.01,-1.506c0.054,-0.093 0.106,-0.183 0.16,-0.276c0.263,-0.471 0.757,-0.765 1.298,-0.756l0.843,0.013c0.663,0.01 1.253,-0.433 1.426,-1.074c0.003,-0.006 0.003,-0.016 0.006,-0.022c0.17,-0.644 -0.115,-1.323 -0.698,-1.644zm-12.482,6.307c-4.518,0 -8.184,-3.663 -8.184,-8.185c0,-4.521 3.662,-8.184 8.184,-8.184c4.518,0 8.184,3.663 8.184,8.184c0,4.522 -3.662,8.185 -8.184,8.185z" opacity="0.4"/>
  </g>
  <path id="svg_14" fill="#EDF6F5" d="m59.6817,111.749l-59.6817,0c0,0 4.10504,-9.158 13.5777,-5.367c0,0 3.4738,-9.473 11.6838,-8.3674c8.2101,1.1055 9.7899,6.8224 9.7899,6.8224c0,0 8.8414,-3.509 17.3687,3.599c-0.0032,-0.003 6.9443,-0.792 7.2616,3.313z"/>
  <path id="svg_15" fill="#EDF6F5" d="m262.025,32.2122l49.809,0c0,0 -4.115,-7.8191 -14.757,-4.935c0,0 -2.695,-8.1844 -12.347,-8.1844c-9.649,0 -13.056,8.1844 -13.056,8.1844c0,0 -8.796,-0.3941 -9.649,4.935z"/>
  <path id="svg_16" fill="#aac9dd" d="m263.619,143.559l-190.1899,3.509l-4.4672,-3.509l0,-111.0512l194.6571,0l4.468,3.509l-4.468,107.5422z"/>
  <path id="svg_17" fill="#aac9dd" d="m263.619,24.5284l-190.1899,3.5122l-4.4672,-3.5122l0,-14.0391l194.6571,0l4.468,3.5089l-4.468,10.5302z"/>
  <path id="svg_18" fill="#d2e1e6" d="m268.086,36.0166l-194.6573,0l0,111.0504l194.6573,0l0,-111.0504z"/>
  <path id="svg_19" fill="#c1e3ed" d="m133.483,47.291l-52.7916,0l0,27.1747l52.7916,0l0,-27.1747z"/>
  <path id="svg_20" fill="white" d="m256.652,114.906l-55.31,0l0,2.208l55.31,0l0,-2.208z"/>
  <path id="svg_21" fill="white" d="m256.652,123.673l-55.31,0l0,2.208l55.31,0l0,-2.208z"/>
  <path id="svg_22" fill="white" d="m256.652,132.538l-55.31,0l0,2.208l55.31,0l0,-2.208z"/>
  <path id="svg_23" fill="white" d="m194.686,117.809l-0.125,0c-0.993,0 -1.797,-0.804 -1.797,-1.797c0,-0.994 0.804,-1.798 1.797,-1.798l0.125,0c0.994,0 1.798,0.804 1.798,1.798c0,0.993 -0.804,1.797 -1.798,1.797z"/>
  <path id="svg_24" fill="white" d="m194.686,126.573l-0.125,0c-0.993,0 -1.797,-0.804 -1.797,-1.798c0,-0.993 0.804,-1.797 1.797,-1.797l0.125,0c0.994,0 1.798,0.804 1.798,1.797c0,0.994 -0.804,1.798 -1.798,1.798z"/>
  <path id="svg_25" fill="white" d="m194.686,135.467l-0.125,0c-0.993,0 -1.797,-0.805 -1.797,-1.798c0,-0.994 0.804,-1.798 1.797,-1.798l0.125,0c0.994,0 1.798,0.804 1.798,1.798c0,0.993 -0.804,1.798 -1.798,1.798z"/>
  <path id="svg_26" fill="white" d="m144.43,82.5527l-55.3109,0l0,2.208l55.3109,0l0,-2.208z"/>
  <path id="svg_27" fill="white" d="m144.43,91.3164l-55.3109,0l0,2.208l55.3109,0l0,-2.208z"/>
  <path id="svg_28" fill="white" d="m82.4677,85.4529l-0.125,0c-0.9934,0 -1.7978,-0.8043 -1.7978,-1.7977c0,-0.9934 0.8044,-1.7978 1.7978,-1.7978l0.125,0c0.9934,0 1.7977,0.8044 1.7977,1.7978c0,0.9934 -0.8043,1.7977 -1.7977,1.7977z"/>
  <path id="svg_29" fill="white" d="m82.4657,94.2166l-0.125,0c-0.9934,0 -1.7977,-0.8043 -1.7977,-1.7977c0,-0.9934 0.8043,-1.7978 1.7977,-1.7978l0.125,0c0.9934,0 1.7978,0.8044 1.7978,1.7978c0,0.9934 -0.8044,1.7977 -1.7978,1.7977z"/>
  <path id="svg_30" fill="#d2e1e6" d="m268.086,13.998l-194.6573,0l0,14.0424l194.6573,0l0,-14.0424z"/>
  <path id="svg_31" fill="#0da87b" d="m101.832,21.0191c0,1.1152 -0.903,2.0221 -2.0218,2.0221c-1.1184,0 -2.0221,-0.9037 -2.0221,-2.0221c0,-1.1183 0.9037,-2.022 2.0221,-2.022c1.1188,0 2.0218,0.9069 2.0218,2.022z"/>
  <path id="svg_32" fill="#EB908B" d="m91.5123,23.0412c1.1168,0 2.0221,-0.9053 2.0221,-2.0221c0,-1.1167 -0.9053,-2.022 -2.0221,-2.022c-1.1168,0 -2.0221,0.9053 -2.0221,2.022c0,1.1168 0.9053,2.0221 2.0221,2.0221z"/>
  <path id="svg_33" fill="#c9b7a1" d="m83.2154,23.0412c1.1168,0 2.0221,-0.9053 2.0221,-2.0221c0,-1.1167 -0.9053,-2.022 -2.0221,-2.022c-1.1167,0 -2.022,0.9053 -2.022,2.022c0,1.1168 0.9053,2.0221 2.022,2.0221z"/>
  <path id="svg_34" fill="#c1e3ed" d="m273.156,102.617l-86.184,0c-1.852,0 -3.355,-1.503 -3.355,-3.355l0,-48.485c0,-1.8522 1.503,-3.3551 3.355,-3.3551l86.184,0c1.852,0 3.355,1.5029 3.355,3.3551l0,48.485c0,1.855 -1.503,3.355 -3.355,3.355z"/>
  <path id="svg_35" fill="#1a3d6e" d="m276.02,105.235l-86.183,0c-1.853,0 -3.356,-1.503 -3.356,-3.355l0,-48.4848c0,-1.8522 1.503,-3.3552 3.356,-3.3552l86.183,0c1.852,0 3.355,1.503 3.355,3.3552l0,48.4848c-0.003,1.852 -1.503,3.355 -3.355,3.355z"/>
  <path id="svg_36" fill="white" d="m224.703,58.0088l-2.573,0l0,39.4994l2.573,0l0,-39.4994z"/>
  <path id="svg_37" fill="white" d="m219.016,58.0088l-2.574,0l0,39.4994l2.574,0l0,-39.4994z"/>
  <path id="svg_38" fill="white" d="m213.331,58.0088l-2.573,0l0,39.4994l2.573,0l0,-39.4994z"/>
  <path id="svg_39" fill="white" d="m207.646,58.0088l-2.573,0l0,39.4994l2.573,0l0,-39.4994z"/>
  <path id="svg_40" fill="white" d="m201.958,58.0088l-2.573,0l0,39.4994l2.573,0l0,-39.4994z"/>
  <path id="svg_41" fill="white" d="m196.272,58.0078l-2.573,0l0,39.4994l2.573,0l0,-39.4994z"/>
  <path id="svg_42" fill="#C6E0DD" d="m224.704,85.1396l-2.573,0l0,12.3728l2.573,0l0,-12.3728z"/>
  <path id="svg_43" fill="#C6E0DD" d="m219.017,71.8369l-2.574,0l0,25.6717l2.574,0l0,-25.6717z"/>
  <path id="svg_44" fill="#C6E0DD" d="m213.333,65.1875l-2.573,0l0,32.3212l2.573,0l0,-32.3212z"/>
  <path id="svg_45" fill="#C6E0DD" d="m207.646,75.0234l-2.573,0l0,22.4864l2.573,0l0,-22.4864z"/>
  <path id="svg_46" fill="#C6E0DD" d="m201.959,81.4238l-2.573,0l0,16.0837l2.573,0l0,-16.0837z"/>
  <path id="svg_47" fill="#C6E0DD" d="m196.273,86.4814l-2.573,0l0,11.0269l2.573,0l0,-11.0269z"/>
  <path id="svg_48" fill="white" d="m244.694,64.1323c0.628,-2.6629 -1.021,-5.3312 -3.683,-5.96c-2.663,-0.6287 -5.332,1.0202 -5.96,3.683c-0.629,2.6628 1.02,5.3312 3.683,5.9599c2.662,0.6288 5.331,-1.0201 5.96,-3.6829z"/>
  <path id="svg_49" fill="white" d="m271.688,58.1309l-22.002,0l0,1.4228l22.002,0l0,-1.4228z"/>
  <path id="svg_50" fill="white" d="m271.688,62.3359l-22.002,0l0,1.4229l22.002,0l0,-1.4229z"/>
  <path id="svg_51" fill="white" d="m261.863,66.498l-12.177,0l0,1.4229l12.177,0l0,-1.4229z"/>
  <path id="svg_52" fill="white" d="m244.693,82.187c0.628,-2.6629 -1.021,-5.3312 -3.683,-5.96c-2.663,-0.6288 -5.332,1.0202 -5.96,3.683c-0.629,2.6628 1.02,5.3312 3.683,5.9599c2.662,0.6288 5.331,-1.0201 5.96,-3.6829z"/>
  <path id="svg_53" fill="white" d="m271.688,76.1855l-22.002,0l0,1.4229l22.002,0l0,-1.4229z"/>
  <path id="svg_54" fill="white" d="m271.688,80.3857l-22.002,0l0,1.4228l22.002,0l0,-1.4228z"/>
  <path id="svg_55" fill="white" d="m261.863,84.5488l-12.177,0l0,1.4229l12.177,0l0,-1.4229z"/>
  <path id="svg_56" fill="#AECBC7" d="m324.341,200.783l-324.341,0l0,4.505l324.341,0l0,-4.505z"/>
  <path id="svg_57" fill="#0C1B3C" d="m270.376,72.9807l-1.84,-4.371c0,0 -3.403,-3.5891 -1.471,-6.486c1.933,-2.9001 10.124,-3.5891 11.918,6.9923c0,0 2.897,0.093 3.403,2.897c0.507,2.8071 -2.025,4.6466 -2.807,6.7167c-0.782,2.0702 -2.531,2.8072 -2.531,2.8072l-3.266,0.5063l-3.406,-9.0625z"/>
  <path id="svg_58" fill="#E9928B" d="m290.204,131.823c0,0 -1.932,3.083 -2.394,4.74c-0.461,1.657 -0.874,2.163 -0.506,2.483c0.369,0.324 1.288,-1.333 1.932,-2.163c0.645,-0.83 0.737,2.208 0.737,3.314c0,1.105 -0.531,3.083 0.068,3.127c0.599,0.045 2.14,-2.531 2.692,-3.589c0.551,-1.057 0.304,-7.912 0.304,-7.912l-2.833,0l0,0z"/>
  <path id="svg_59" fill="#bca180" d="m285.213,193.497l-1.382,1.035c0,0 -1.035,4.003 -0.551,5.554l16.356,0c0,0 -1.586,-2.279 -4.832,-3.295c-3.243,-1.019 -4.211,-1.362 -4.692,-2.259c-0.484,-0.897 -4.899,-1.035 -4.899,-1.035z"/>
  <path id="svg_60" fill="#ccad88" d="m259.196,192.946l1.173,1.587c0,0 1.448,3.518 0.826,5.553l-13.664,0c0,0 0.209,-2.278 2.484,-3.294c2.278,-1.019 4.278,-2.259 4.278,-2.259l4.903,-1.587z"/>
  <path id="svg_61" fill="white" d="m299.636,200.089l-16.356,0l0,1.621l16.356,0l0,-1.621z"/>
  <path id="svg_62" fill="white" d="m261.197,200.089l-13.664,0l0,1.621l13.664,0l0,-1.621z"/>
  <path id="svg_63" fill="#E9928B" d="m290.113,194.533l-6.281,0l-0.436,-2.932l-0.458,-3.073l6.691,-0.965l0.282,4.038l0.202,2.932z"/>
  <path id="svg_64" fill="#E9928B" d="m261.197,188.668l-0.414,2.932l-0.416,2.932l-6.073,0l0.381,-2.932l0.378,-2.932l6.144,0z"/>
  <path id="svg_65" fill="#DE6667" d="m255.055,188.668l6.143,0l-0.413,2.932l-6.108,0l0.378,-2.932z"/>
  <path id="svg_66" fill="#DE6667" d="m289.911,191.601l-6.515,0l-0.458,-3.073l6.691,-0.965l0.282,4.038z"/>
  <path id="svg_67" fill="#5F6386" d="m291.633,190.117l-9.8,0c0,0 -7.591,-27.053 -8.418,-30.921c-0.827,-3.861 -3.682,-12.376 -3.682,-12.376l-7.361,43.294l-8.643,0c0,0 -0.362,-20.843 0,-27.745c0.289,-5.512 1.756,-23.086 3.25,-31.838c0.378,-2.208 0.756,-3.852 1.115,-4.601c1.794,-3.727 23.739,4.278 23.739,4.278c0,0 0.151,0.849 0.41,2.323c0.84,4.749 2.827,15.962 4.653,25.973c2.388,13.116 4.737,31.613 4.737,31.613z"/>
  <path id="svg_68" fill="#4A4E73" d="m269.732,146.823l-3.291,-11.639c0,0 -3.381,6.441 -2.417,11.639c0.968,5.197 -2.957,7.11 -0.173,12.651c2.785,5.544 -1.224,9.774 1.478,13.238l4.403,-25.889z"/>
  <path id="svg_69" fill="#4A4E73" d="m282.242,132.537c-2.593,0.558 -5.781,0.558 -9.646,-0.516c-8.768,-2.432 -13.402,-2.073 -15.622,-1.487c0.378,-2.208 0.756,-3.852 1.115,-4.601c1.794,-3.727 23.739,4.278 23.739,4.278c0,0 0.154,0.852 0.414,2.326z"/>
  <path id="svg_70" fill="#E9928B" d="m248.223,78.7289c0,0 -0.552,-2.8617 0.689,-4.339c1.24,-1.4773 4.198,0.8204 4.198,0.8204c0,0 1.916,2.0605 0.929,3.9961c-0.987,1.9387 -5.816,-0.4775 -5.816,-0.4775z"/>
  <path id="svg_71" fill="#7DC4BE" d="m286.001,102.52c-1.202,6.967 -3.173,14.722 -2.926,18.17c0.458,6.441 0.737,8.835 1.106,10.03c0.365,1.199 -5.429,2.208 -11.687,0c-3.016,-1.067 -6.848,-1.724 -10.002,-2.121c-3.393,-0.423 -6.008,-0.545 -6.008,-0.545c0,0 1.749,-9.296 2.301,-14.174c0.554,-4.877 -0.032,-10.488 -0.032,-10.488c0,0 -0.004,0.003 -0.01,0.01c-0.269,0.208 -7.114,5.441 -10.636,2.05c-0.509,-0.49 -0.894,-1.172 -1.179,-1.996c-2.311,-6.7007 2.105,-22.8837 2.105,-22.8837l5.246,0.737c0,0 -0.737,12.6067 -0.276,12.6997c0.459,0.0929 5.429,-4.4159 7.823,-6.1656c1.339,-0.9806 3.595,-1.5574 5.973,-1.8138c1.865,-0.1955 3.804,-0.1922 5.435,-0.0288c0,0 2.419,0.0545 5.329,0.6793c2.32,0.4936 4.948,1.3492 6.909,2.8168c2.045,1.5382 1.577,6.9828 0.529,13.0231z"/>
  <g id="svg_72" opacity="0.65">
   <path id="svg_73" fill="#379690" d="m284.177,130.721c0.365,1.198 -5.429,2.208 -11.687,0c-3.016,-1.067 -6.848,-1.724 -10.002,-2.122c1.157,-1.442 3.134,-2.903 7.243,-4.117c10.075,-2.984 0.458,-8.111 6.239,-11.469c5.781,-3.356 6.271,-13.6263 6.271,-13.6263l3.756,3.1313c-1.202,6.966 -3.173,14.721 -2.926,18.169c0.462,6.445 0.737,8.835 1.106,10.034z" opacity="0.65"/>
  </g>
  <path id="svg_74" fill="white" d="m278.557,86.6799c-2.551,4.7716 -9.777,8.9439 -9.777,8.9439c-1.247,-3.6051 -1.109,-7.8928 -0.987,-9.5977c1.865,-0.1954 3.804,-0.1922 5.435,-0.0288c0,0.0032 2.419,0.0577 5.329,0.6826z"/>
  <path id="svg_75" fill="#7DC4BE" d="m281.971,89.1294c1.259,-1.4004 3.864,-0.1826 7.085,4.5088c3.221,4.6915 5.98,15.0898 6.534,18.6798c0.551,3.589 -0.276,15.92 -2.025,21.255l-4.701,-0.368c0,0 -1.189,-17.667 -1.372,-18.862c-0.183,-1.195 -3.958,-10.675 -5.521,-15.8274c-1.564,-5.153 -1.657,-7.5468 0,-9.3862z"/>
  <path id="svg_76" fill="#E9928B" d="m277.044,86.6905c0,0.6922 -1.012,1.8843 -3.496,2.3458c-2.483,0.4582 -5.521,-1.3331 -4.601,-2.5316c0.342,-0.4486 0.554,-1.3395 0.679,-2.2817c0.211,-1.5734 0.195,-3.2846 0.195,-3.2846c0,0 5.381,-5.0152 5.336,-2.4387c-0.048,2.5765 1.884,3.0379 1.884,3.0379c-0.637,2.8521 0.003,4.464 0.003,5.1529z"/>
  <path id="svg_77" fill="#DE6667" d="m275.16,78.4985c-1.435,3.6179 -3.691,5.1176 -5.534,5.7233c0.211,-1.5734 0.195,-3.2847 0.195,-3.2847c0,0 5.384,-5.0119 5.339,-2.4386z"/>
  <path id="svg_78" fill="#E9928B" d="m254.272,81.3064c0,0 -0.182,-3.8775 -1.32,-5.1946c-1.141,-1.317 -2.096,-1.0767 -1.9,0c0.199,1.0768 1.067,2.9675 0.224,4.7588l2.996,0.4358z"/>
  <path id="svg_79" fill="#4A4E73" d="m252.931,186.672l0,3.81l9.649,0l0.874,-3.81l-10.523,0z"/>
  <path id="svg_80" fill="#4A4E73" d="m281.39,190.482l10.911,0l-0.317,-3.81l-11.748,0l1.154,3.81z"/>
  <path id="svg_81" fill="white" d="m288.503,196.565l-0.266,-0.09c0.013,-0.038 0.324,-0.91 2.183,-1.592l0.096,0.263c-1.711,0.628 -2.01,1.41 -2.013,1.419z"/>
  <path id="svg_82" fill="white" d="m290.606,197.616l-0.269,-0.071c0.016,-0.057 0.388,-1.41 1.929,-1.836l0.074,0.269c-1.385,0.382 -1.721,1.586 -1.734,1.638z"/>
  <path id="svg_83" fill="white" d="m293.166,197.593l-0.278,-0.026c0.003,-0.032 0.077,-0.817 0.586,-1.349l0.202,0.192c-0.439,0.461 -0.51,1.176 -0.51,1.183z"/>
  <path id="svg_84" fill="white" d="m256.411,195.613c-1.404,-0.542 -2.83,-0.507 -2.843,-0.507l-0.009,-0.278c0.064,-0.004 1.496,-0.039 2.951,0.525l-0.099,0.26z"/>
  <path id="svg_85" fill="white" d="m254.798,196.645c-1.515,-0.67 -2.659,-0.747 -2.669,-0.75l0.016,-0.279c0.048,0.003 1.198,0.08 2.765,0.773l-0.112,0.256z"/>
  <path id="svg_86" fill="white" d="m252.359,197.147c-0.429,-0.387 -1.592,-0.567 -1.605,-0.567l0.042,-0.275c0.051,0.006 1.256,0.195 1.749,0.637l-0.186,0.205z"/>
  <g id="svg_87" opacity="0.65">
   <path id="svg_88" fill="#379690" d="m260.035,96.1846c-0.971,2.5188 -1.288,7.2074 -1.288,7.2074c0,0 -0.004,0.003 -0.01,0.009c-0.269,0.209 -7.114,5.442 -10.636,2.051c-0.509,-0.49 -0.894,-1.173 -1.179,-1.996c1.948,0.269 3.615,2.32 5.922,-0.061c3.583,-3.7046 7.191,-7.2104 7.191,-7.2104z" opacity="0.65"/>
  </g>
  <path id="svg_89" fill="#E9928B" d="m268.536,68.6094c0,0 -3.82,10.4885 -0.919,12.6067c2.9,2.115 7.546,-2.7143 7.546,-2.7143c0,0 1.977,0.093 3.038,-1.5189c1.058,-1.6087 -0.782,-2.3169 -1.609,-1.801c-0.826,0.5128 -1.794,-0.2692 -1.15,-2.2464c0.644,-1.9772 0.276,-2.0701 -0.968,-1.7945c-1.246,0.2724 -5.8,-1.9804 -5.938,-2.5316z"/>
  <path id="svg_90" fill="#4A4E73" d="m289.699,186.726c-4.063,-30.353 -10.796,-53.481 -10.863,-53.712l0.804,-0.237c0.068,0.231 6.82,23.422 10.889,53.837l-0.83,0.112z"/>
  <path id="svg_91" fill="#91415C" d="m81.0289,70.2191c0,0 -1.3043,-4.3518 -1.3043,-5.7457c0,-1.394 1.2754,-5.31 1.9868,-5.3965c0.7115,-0.0865 2.1022,7.5724 2.7143,8.617c0.6089,1.0447 -0.5224,2.5252 -0.5224,2.5252l-2.8744,0z"/>
  <path id="svg_92" fill="#91415C" d="m16.0356,166.684l-4.6274,-5.099l1.7753,-1.82l3.5923,-3.682l4.4319,4.881l-3.4609,3.826l-1.7112,1.894z"/>
  <path id="svg_93" fill="#75354A" d="m17.7469,164.79l-4.5633,-5.025l3.5923,-3.682l4.4319,4.881l-3.4609,3.826z"/>
  <path id="svg_94" fill="#7bae8d" d="m11.4078,161.585l4.6274,5.095c0,0 -0.2532,4.406 1.7208,7.105c1.9772,2.698 2.506,4.582 1.6023,6.582l-13.76357,-15.161l5.81307,-3.621z"/>
  <path id="svg_95" fill="white" d="m15.9895,168.508c-1.0704,-0.776 -3.5859,-1.475 -3.6116,-1.481l0.0737,-0.269c0.1058,0.029 2.5893,0.718 3.7013,1.522l-0.1634,0.228z"/>
  <path id="svg_96" fill="white" d="m16.1948,169.981c-1.2722,-0.535 -3.2558,-0.32 -3.2751,-0.317l-0.032,-0.279c0.0833,-0.01 2.0797,-0.224 3.416,0.34l-0.1089,0.256z"/>
  <path id="svg_97" fill="white" d="m14.0664,172.01l-0.1025,-0.26c0.0544,-0.022 1.3555,-0.525 2.6053,-0.605l0.016,0.278c-1.2017,0.077 -2.506,0.584 -2.5188,0.587z"/>
  <path id="svg_98" fill="#DCECEB" d="m5.6058,165.198l-1.10092,0.999l13.76472,15.162l1.1009,-1l-13.7647,-15.161z"/>
  <path id="svg_99" fill="#489DA2" d="m51.1716,121.316c0,0 -0.0865,0.477 -0.2468,1.295c-0.3364,1.736 -1.003,5.015 -1.8586,8.527c-1.1056,4.515 -2.5284,9.418 -3.9897,11.94c-1.692,2.916 -8.6555,9.069 -14.6993,14.11c-5.1401,4.284 -9.6136,7.764 -9.6136,7.764l-9.3574,-9.6c0,0 19.362,-17.452 19.8843,-18.148c0.5224,-0.698 2.82,-10.838 3.6917,-18.846c0.3781,-3.467 1.4388,-7.162 2.522,-10.238c1.4164,-4.029 2.8712,-6.996 2.8712,-6.996l9.0529,3.307l0.0897,0.849l0.8781,8.512l0.7755,7.524z"/>
  <path id="svg_100" fill="#408C91" d="m50.9265,122.61c-0.3365,1.737 -1.003,5.015 -1.8586,8.527c-1.1056,4.516 -2.5284,9.419 -3.9897,11.94c-1.692,2.917 -8.6555,9.069 -14.6993,14.11c1.4485,-7.88 10.7705,-7.172 9.3894,-12.933c-1.4357,-6.006 4.5696,-8.358 2.1758,-16.19c-2.3938,-7.835 1.4805,-13.055 1.4805,-13.055c0,0 3.5122,3.506 7.5019,7.601z"/>
  <path id="svg_101" fill="#91415C" d="m69.9836,60.0353c0,0 -1.583,1.2177 -2.7142,3.7461c-0.4423,0.987 -0.814,2.1727 -0.9967,3.5635c-0.6537,4.9607 -9.2707,-0.391 -9.2707,-0.391l4.1787,-8.7484l3.4225,-1.8266l2.6662,1.8138l2.7142,1.8426z"/>
  <path id="svg_102" fill="#bc8f5e" d="m57.0049,65.7139c0,0 0.6826,-2.1278 1.6471,-2.2079c0.9646,-0.0769 8.0146,0.9517 8.3415,2.5893c0.3268,1.6407 0,2.6854 0,2.6854l-9.9886,-3.0668z"/>
  <path id="svg_103" fill="#c19464" d="m83.7276,73.2663l0.6954,-3.2206c0,0 -3.2206,-0.8364 -4.4383,-0.6794c-1.2177,0.157 -2.349,3.9 -2.349,3.9l6.0919,0z"/>
  <path id="svg_104" fill="#b5895a" d="m65.623,90.0646c0,0 4.5121,1.2114 14.0488,-7.3544c9.5368,-8.5658 -7.912,-5.1818 -7.912,-5.1818l-6.1368,12.5362z"/>
  <path id="svg_105" fill="#040707" d="m82.0771,169.057l-29.0654,0l0,0.839l29.0654,0l0,-0.839z"/>
  <path id="svg_106" fill="#040707" d="m64.305,200.887l-8.8478,-40.682l-8.8478,40.682l-0.8203,-0.179l9.2579,-42.566c0.0417,-0.193 0.2115,-0.33 0.4102,-0.33c0.1987,0 0.3685,0.137 0.4102,0.33l9.258,42.566l-0.8204,0.179z"/>
  <path id="svg_107" fill="#91415C" d="m64.5268,176.815l-6.8834,0l-0.1538,-2.538l-0.3109,-5.133l6.5886,0l0.5095,5.133l0.25,2.538z"/>
  <path id="svg_108" fill="#75354A" d="m64.2768,174.277l-6.7872,0l-0.3109,-5.133l6.5886,0l0.5095,5.133z"/>
  <path id="svg_109" fill="#7bae8d" d="m57.6431,176.815l6.8834,0c0,0 3.0924,3.151 6.4187,3.5c3.3263,0.349 5.076,1.224 5.9509,3.236l-20.4772,0l1.2242,-6.736z"/>
  <path id="svg_110" fill="white" d="m62.3254,179.754l-0.1506,-0.237c0.0929,-0.058 2.272,-1.435 3.6148,-1.714l0.0576,0.272c-1.2882,0.273 -3.4993,1.666 -3.5218,1.679z"/>
  <path id="svg_111" fill="white" d="m64.6426,181.125l-0.2276,-0.163c0.0481,-0.067 1.2306,-1.689 2.5477,-2.301l0.1185,0.253c-1.2529,0.58 -2.429,2.195 -2.4386,2.211z"/>
  <path id="svg_112" fill="white" d="m67.1505,181.853l-0.2628,-0.099c0.0224,-0.055 0.5223,-1.359 1.301,-2.333l0.218,0.176c-0.7499,0.936 -1.253,2.243 -1.2562,2.256z"/>
  <path id="svg_113" fill="#DCECEB" d="m76.8961,183.554l-20.4772,0l0,1.487l20.4772,0l0,-1.487z"/>
  <path id="svg_114" fill="#040707" d="m93.455,200.887l-8.851,-40.682l-8.851,40.682l-0.8204,-0.179l9.258,-42.566c0.0416,-0.193 0.2115,-0.33 0.4102,-0.33c0.1986,0 0.3685,0.137 0.4102,0.33l9.2579,42.566l-0.8139,0.179z"/>
  <path id="svg_115" fill="#040707" d="m78.7704,184.621l-29.1454,0l0,0.84l29.1454,0l0,-0.84z"/>
  <path id="svg_116" fill="#489DA2" d="m68.6572,173.182l-14.1,0c0,0 0.2756,-23.493 0.2756,-27.672c0,-2.97 -2.8168,-7.876 -5.7618,-14.375c-1.1953,-2.641 -2.4098,-5.544 -3.4673,-8.691c-1.4741,-4.393 -2.3554,-8.175 -2.8809,-11.126c-0.7755,-4.355 -0.7755,-6.893 -0.7755,-6.893l7.5755,0.849l11.0526,1.24c0,0 1.2113,4.281 2.7142,9.809c2.397,8.829 5.5343,20.833 5.64,23.618c0.1731,4.528 -0.2724,33.241 -0.2724,33.241z"/>
  <path id="svg_117" fill="#408C91" d="m63.288,116.327c-3.0571,-1.289 -6.204,-2.522 -9.3316,-2.365c-1.2114,0.061 -2.4067,-0.007 -3.5635,-0.173c-2.8456,-0.401 -5.4798,-1.381 -7.6781,-2.468c-2.3009,-1.134 -4.1243,-2.387 -5.2138,-3.204c1.4164,-4.028 2.8713,-6.996 2.8713,-6.996l9.0528,3.307l0.0898,0.849l11.0525,1.241c0.0064,0 1.2177,4.281 2.7206,9.809z"/>
  <path id="svg_118" fill="#e8e6d7" d="m107.144,72.4399c0,0 -11.7509,11.4915 -15.1446,12.2735c-3.3936,0.7819 -15.9298,-3.2655 -18.0192,-3.1341c-0.9453,0.0609 -2.9386,6.7007 -4.8293,13.9558c-2.2912,8.7679 -4.4415,18.4259 -4.4415,18.4259c0,0 -5.8739,-2.349 -15.4075,-3.002c-1.4036,-0.096 -2.6726,-0.305 -3.8166,-0.593c-6.6399,-1.663 -9.1074,-5.935 -9.1074,-5.935c9.4022,-13.4495 9.5304,-25.2006 11.4916,-32.5102c1.958,-7.3128 9.7931,-7.8352 15.6671,-6.0054c2.6021,0.8108 8.2261,1.8266 10.8378,2.7431c2.6117,0.9133 16.0612,6.1368 16.9745,6.1368c0.9133,0 12.0111,-6.2682 12.0111,-6.2682c3.521,-0.0064 3.784,3.9128 3.784,3.9128z"/>
  <path id="svg_119" fill="#91415C" d="m103.574,69.3438c0,0 2.263,-1.9997 4.179,-2.7816c1.916,-0.7819 4.525,-2.3906 4.525,-1.5446c0,0.846 -2.349,2.0445 -2.349,2.0445l7.159,-0.6505c0,0 -3.157,3.1981 -5.679,3.807c-2.525,0.6089 -5.745,1.7401 -5.745,1.7401l-2.09,-2.6149z"/>
  <path id="svg_120" fill="#1a3d6e" d="m124.291,40.6484l-43.1064,3.5948l2.0832,24.9815l43.1072,-3.5948l-2.084,-24.9815z"/>
  <path id="svg_121" fill="white" d="m121.908,43.4682l-37.9021,3.1607l1.6491,19.7764l37.902,-3.1607l-1.649,-19.7764z"/>
  <path id="svg_122" fill="#1a3d6e" d="m89.6846,66.3595l7.3737,-15.6447l9.8607,14.2058l-17.2344,1.4389z"/>
  <path id="svg_123" fill="#1a3d6e" d="m106.137,65.0184l5.701,-12.1004l7.626,10.9884l-13.327,1.112z"/>
  <path id="svg_124" fill="#1a3d6e" d="m104.755,52.3799c1.419,-0.0699 2.514,-1.2773 2.444,-2.6967c-0.07,-1.4195 -1.278,-2.5135 -2.697,-2.4436c-1.42,0.0699 -2.514,1.2773 -2.444,2.6968c0.07,1.4195 1.278,2.5135 2.697,2.4435z"/>
  <path id="svg_125" fill="#408C91" d="m65.1353,173.287l-0.8396,0c0,-0.253 0.032,-25.226 -0.1122,-31.244c-0.1442,-5.942 -10.5077,-30.046 -10.6103,-30.29l0.7691,-0.333c0.4295,0.997 10.5334,24.496 10.6808,30.6c0.1474,6.031 0.1122,31.014 0.1122,31.267z"/>
  <path id="svg_126" fill="#c6ae95" d="m69.151,95.5312c-2.2912,8.7678 -4.4415,18.4258 -4.4415,18.4258c0,0 -5.874,-2.348 -15.4075,-3.002c-1.4036,-0.096 -2.6726,-0.305 -3.8166,-0.593c0.2179,-0.244 0.455,-0.481 0.7146,-0.711c7.864,-7.05 10.8057,-2.349 14.6544,-7.441c2.8745,-3.8075 5.6657,-4.019 8.2966,-6.6788z"/>
  <path id="svg_127" fill="#0C1B3C" d="m73.454,48.0209l1.4356,-1.5029c0,0 0.1314,-2.6758 -2.5669,-6.1592c-2.6982,-3.4833 -4.2652,-2.1759 -3.0475,0c1.2177,2.1759 -2.4386,1.0447 -5.7009,0.6089c-3.2622,-0.4358 -5.9605,0.0256 -4.3518,2.147c1.6119,2.1182 0.2179,2.2048 -3.7878,3.8615c-4.0056,1.6568 -3.3936,4.0922 0,4.3518c3.3937,0.2596 1.1344,2.2624 -1.4773,5.0472c-2.6149,2.7847 -0.612,4.3518 2.2625,2.7847c2.8712,-1.567 3.4833,0.1731 2.5251,2.6118c-0.9581,2.4386 2.4387,0.3493 4.0025,-1.394c1.5671,-1.7401 1.1312,1.3042 3.525,-2.5252c2.3971,-3.823 7.1815,-9.8316 7.1815,-9.8316z"/>
  <path id="svg_128" fill="#75354A" d="m69.984,60.0353c0,0 -1.5831,1.2177 -2.7143,3.7461c-1.9067,-2.0253 -0.8107,-5.5054 -0.8107,-5.5054l0.8107,-0.0865l2.7143,1.8458z"/>
  <path id="svg_129" fill="#91415C" d="m74.8931,46.521c0,0 -0.4358,4.4191 0.391,6.6815c0.8267,2.2624 1.6535,2.349 0.6537,3.2206c-0.9998,0.8716 -1.6536,0.6954 -1.8715,1.6984c-0.2179,0.9998 0.2179,4.4383 -2.3072,4.3518c-2.5252,-0.0865 -5.2235,-3.6981 -5.483,-4.6146c0,0 -2.6534,-0.8716 -2.6983,-3.0891c-0.0448,-2.2208 2.1343,-2.9611 3.0027,-1.9164c0.8716,1.0447 1.8266,-0.3044 1.8715,-1.958c0.0448,-1.6535 1.0895,-4.0024 2.8712,-3.8743c1.785,0.1314 2.6118,-1.6535 3.5699,-0.4999z"/>
  <path id="svg_130" fill="#F2BAAB" d="m179.146,204.57l0.417,-1.512c2.268,-8.223 -2.26,-14.043 -2.455,-14.289l-0.657,0.522c0.042,0.054 3.986,5.143 2.596,12.293c-1.138,-2.244 -4.471,-6.743 -13.014,-7.172l-0.042,0.839c10.758,0.539 12.742,7.727 12.761,7.797l0.394,1.522z"/>
  <path id="svg_131" fill="#F2BAAB" d="m161.783,194.976c0,1.1 0.891,1.99 1.99,1.99c1.099,0 1.99,-0.89 1.99,-1.99c0,-1.099 -0.891,-1.99 -1.99,-1.99c-1.099,0 -1.99,0.891 -1.99,1.99z"/>
  <path id="svg_132" fill="#F2BAAB" d="m184.39,194.976c0,1.1 0.891,1.99 1.99,1.99c1.099,0 1.99,-0.89 1.99,-1.99c0,-1.099 -0.891,-1.99 -1.99,-1.99c-1.099,0 -1.99,0.891 -1.99,1.99z"/>
  <path id="svg_133" fill="#F2BAAB" d="m174.084,187.465c0,1.099 0.891,1.99 1.99,1.99c1.099,0 1.99,-0.891 1.99,-1.99c0,-1.1 -0.891,-1.99 -1.99,-1.99c-1.099,0 -1.99,0.89 -1.99,1.99z"/>
  <path id="svg_134" fill="#F2BAAB" d="m179.566,203.055c0.974,-3.717 5.476,-6.867 5.521,-6.899l-0.477,-0.689c-0.196,0.134 -4.801,3.358 -5.855,7.377l0.811,0.211z"/>
  <path id="svg_135" fill="#F2D6C8" d="m125.499,182.264c3.782,-5.579 8.015,-9.386 14.658,-13.485c6.64,-4.099 14.629,-3.211 18.067,-4.384c3.436,-1.176 3.035,3.112 1.564,7.015c-1.471,3.903 -0.497,22.746 -19.689,26.521c-19.192,3.778 -17.391,-11.546 -14.6,-15.667z"/>
  <path id="svg_136" fill="#F5B89B" d="m136.78,187.583c-0.022,0 -0.045,-0.003 -0.067,-0.009c-0.151,-0.039 -0.24,-0.189 -0.202,-0.34c1.586,-6.275 -0.862,-12.953 -0.888,-13.02c-0.054,-0.144 0.02,-0.305 0.164,-0.359c0.144,-0.055 0.304,0.019 0.359,0.163c0.025,0.068 2.535,6.906 0.903,13.354c-0.028,0.128 -0.144,0.211 -0.269,0.211z"/>
  <path id="svg_137" fill="#F5B89B" d="m136.649,188.31c-0.112,0 -0.218,-0.068 -0.26,-0.18c-0.054,-0.144 0.016,-0.308 0.161,-0.362c6.008,-2.333 15.353,-0.237 15.75,-0.147c0.151,0.035 0.244,0.185 0.212,0.336c-0.036,0.151 -0.186,0.247 -0.337,0.212c-0.096,-0.023 -9.575,-2.151 -15.42,0.121c-0.039,0.013 -0.071,0.02 -0.106,0.02z"/>
  <path id="svg_138" fill="#F5B89B" d="m134.309,193.44c-0.032,0 -0.064,-0.006 -0.096,-0.016c-0.145,-0.054 -0.222,-0.215 -0.167,-0.359c5.915,-16.17 23.178,-26.091 23.351,-26.187c0.135,-0.077 0.305,-0.029 0.382,0.105c0.077,0.135 0.029,0.305 -0.106,0.382c-0.173,0.096 -17.256,9.921 -23.102,25.892c-0.041,0.113 -0.147,0.183 -0.262,0.183z"/>
  <path id="svg_139" fill="#F5B89B" d="m143.507,178.874c-0.093,0 -0.183,-0.044 -0.237,-0.131c-0.084,-0.131 -0.042,-0.304 0.086,-0.385c4.118,-2.592 12.678,-0.862 13.04,-0.788c0.15,0.032 0.25,0.18 0.218,0.33c-0.032,0.151 -0.18,0.247 -0.331,0.218c-0.086,-0.019 -8.7,-1.756 -12.629,0.715c-0.045,0.029 -0.096,0.041 -0.147,0.041z"/>
  <path id="svg_140" fill="#F5B89B" d="m146.813,175.543c-0.044,0 -0.092,-0.013 -0.137,-0.036c-0.135,-0.077 -0.183,-0.246 -0.106,-0.381c1.359,-2.419 1.279,-7.021 1.279,-7.069c-0.004,-0.154 0.118,-0.282 0.272,-0.286c0.003,0 0.003,0 0.006,0c0.151,0 0.276,0.122 0.279,0.273c0.003,0.195 0.083,4.8 -1.349,7.354c-0.051,0.093 -0.147,0.145 -0.244,0.145z"/>
  <path id="svg_141" fill="#ADCCC7" d="m69.8232,202.433c0,0 0.4198,-10.79 9.2292,-15.514c8.8093,-4.723 15.0806,1.548 15.0806,1.548c0,0 4.6819,-13.462 17.875,-13.014c13.193,0.449 14.126,11.466 14.126,11.466c0,0 15.026,-4.236 23.396,3.932c8.55,8.342 6.832,12.139 6.832,12.139l-86.5388,-0.557z"/>
  <path id="svg_142" fill="#6EAB9C" d="m92.1314,201.148c-0.0545,-0.048 -5.6016,-4.705 -11.7896,-6.874l0.1859,-0.529c6.2873,2.205 11.9081,6.928 11.9658,6.976l-0.3621,0.427z"/>
  <path id="svg_143" fill="#6EAB9C" d="m77.7105,199.517l-0.2564,-0.497c0.1634,-0.083 4.0698,-2.038 11.2576,-1.041l-0.0769,0.554c-7.0148,-0.974 -10.8859,0.965 -10.9243,0.984z"/>
  <path id="svg_144" fill="#6EAB9C" d="m108.381,200.886l-0.474,-0.298c0.007,-0.01 0.689,-1.106 1.526,-3.15c1.477,-3.612 3.412,-9.675 3.143,-20.586l0.558,-0.013c0.269,11.02 -1.689,17.157 -3.185,20.813c-0.856,2.093 -1.539,3.189 -1.568,3.234z"/>
  <path id="svg_145" fill="#6EAB9C" d="m109.243,199.178l-0.34,-0.445c5.733,-4.368 13.697,-4.804 13.777,-4.807l0.025,0.557c-0.077,0.007 -7.873,0.433 -13.462,4.695z"/>
  <path id="svg_146" fill="#6EAB9C" d="m112.117,190.855l-0.538,-0.15c0.538,-1.904 6.268,-9.037 6.512,-9.342l0.436,0.35c-0.058,0.076 -5.903,7.348 -6.41,9.142z"/>
  <path id="svg_147" fill="#6EAB9C" d="m110.265,194.358c-1.788,-2.765 -4.547,-9.838 -4.662,-10.136l0.522,-0.201c0.029,0.073 2.852,7.319 4.611,10.036l-0.471,0.301z"/>
  <path id="svg_148" fill="#6EAB9C" d="m130.044,200.495l0.753,-0.538c0.071,-0.051 7.22,-5.118 14.876,-5.474l0.025,0.558c-5.992,0.279 -11.687,3.522 -13.757,4.829l7.428,-0.259l0.019,0.557l-9.344,0.327z"/>
  <path id="svg_149" fill="#6EAB9C" d="m135.923,197.598l-0.528,-0.182c1.176,-3.429 3.656,-6.669 3.762,-6.804l0.442,0.343c-0.026,0.029 -2.532,3.304 -3.676,6.643z"/>
  <path id="svg_150" fill="#B2E5E0" d="m249.775,18.0109c4.937,-0.0726 8.881,-4.1339 8.808,-9.07125c-0.072,-4.93732 -4.134,-8.88097 -9.071,-8.80838c-4.937,0.07258 -8.881,4.13392 -8.808,9.07124c0.072,4.93729 4.134,8.88099 9.071,8.80839z"/>
  <path id="svg_151" fill="#B2E5E0" d="m253.22,5.99798c-2.317,-1.25619 -3.592,1.94838 -3.592,1.94838c0,0 -1.295,-3.19815 -3.602,-1.92594c-2.605,1.43564 -0.272,6.06618 3.624,8.07548c3.884,-2.0349 6.188,-6.68151 3.57,-8.09792z"/>
  <path id="svg_152" fill="white" d="m251.801,19.4293c4.938,0 8.941,-4.0029 8.941,-8.9407c0,-4.93786 -4.003,-8.94075 -8.941,-8.94075c-4.938,0 -8.941,4.00289 -8.941,8.94075c0,4.9378 4.003,8.9407 8.941,8.9407z"/>
  <path id="svg_153" fill="#EB908B" d="m255.39,7.39642c-2.317,-1.25619 -3.592,1.94837 -3.592,1.94837c0,0 -1.295,-3.19816 -3.602,-1.92595c-2.605,1.43564 -0.272,6.06626 3.624,8.07546c3.881,-2.0317 6.185,-6.68147 3.57,-8.09788z"/>
  <path id="svg_154" fill="#B2E5E0" d="m293.019,59.4595c3.869,0 7.005,-3.1363 7.005,-7.0051c0,-3.8689 -3.136,-7.0052 -7.005,-7.0052c-3.869,0 -7.005,3.1363 -7.005,7.0052c0,3.8688 3.136,7.0051 7.005,7.0051z"/>
  <path id="svg_155" fill="#EDF6F5" d="m294.906,60.8707c3.868,0 7.005,-3.1363 7.005,-7.0052c0,-3.8688 -3.137,-7.0051 -7.005,-7.0051c-3.869,0 -7.006,3.1363 -7.006,7.0051c0,3.8689 3.137,7.0052 7.006,7.0052z"/>
  <path id="svg_156" fill="#d6c5b1" d="m294.908,51.4364l2.4,-1.2626l-0.458,2.6726l1.939,1.8907l-2.682,0.391l-1.199,2.429l-1.198,-2.429l-2.683,-0.391l1.939,-1.8907l-0.458,-2.6726l2.4,1.2626z"/>
  <path id="svg_157" fill="#c1e3ed" d="m80.6914,125.703l0,-22.236c0,0 7.7422,1.958 9.8188,8.95c2.0733,6.992 9.2643,9.931 12.9978,7.691c3.733,-2.237 3.518,-8.252 8.466,-10.351c4.945,-2.099 7.989,3.077 13.796,8.813c5.807,5.733 13.552,6.854 19.634,1.679c6.086,-5.175 11.96,-6.572 16.558,-1.817c4.599,4.756 6.672,5.175 11.928,4.195c5.255,-0.978 8.652,3.076 8.652,3.076l-101.8506,0l0,0z"/>
  <path id="svg_158" fill="white" d="m182.537,132.581l-94.0438,0l0,2.051l94.0438,0l0,-2.051z"/>
  <path id="svg_159" fill="white" d="m83.3675,131.436c-1.1985,0 -2.1663,0.971 -2.1663,2.166c0,1.198 0.971,2.166 2.1663,2.166c1.1985,0 2.1662,-0.971 2.1662,-2.166c0.0032,-1.195 -0.9677,-2.166 -2.1662,-2.166z"/>
  <g id="svg_160" opacity="0.38">
   <path id="svg_161" fill="#78aed3" d="m80.6908,125.703l101.8472,0c0,0 -2.153,-12.309 -10.037,-12.309c-7.88,0 -5.941,10.851 -16.106,8.082c-10.165,-2.769 -11.27,-19.41 -22.194,-20.25c-10.925,-0.839 -13.553,14.687 -19.221,14.687c-5.669,0 -6.775,-6.457 -13.966,-6.864c-7.1909,-0.407 -6.7743,10.222 -12.0298,10.78c-5.2523,0.56 -8.4312,3.916 -8.2934,5.874z" opacity="0.38"/>
  </g>
  <path id="svg_162" fill="#c1e3ed" d="m169.134,74.4201l-22.275,0c-1.343,0 -2.429,-1.0863 -2.429,-2.4291l0,-22.2748c0,-1.3427 1.086,-2.4291 2.429,-2.4291l22.275,0c1.342,0 2.429,1.0864 2.429,2.4291l0,22.2748c0,1.3428 -1.09,2.4291 -2.429,2.4291z"/>
  <path id="svg_163" fill="white" d="m171.928,77.173l-22.275,0c-1.343,0 -2.429,-1.0863 -2.429,-2.429l0,-22.2749c0,-1.3427 1.086,-2.4291 2.429,-2.4291l22.275,0c1.342,0 2.429,1.0864 2.429,2.4291l0,22.2749c0.003,1.3427 -1.087,2.429 -2.429,2.429z"/>
  <path id="svg_164" fill="#7bae8d" d="m155.539,71.2481l10.912,-7.6397l-10.912,-7.6396l0,15.2793z"/>
 </g>
</svg>